<svg xmlns="http://www.w3.org/2000/svg" width="70" height="70" viewBox="0 0 70 70" fill="none"><path d="M35 70c19.33 0 35-15.67 35-35S54.33 0 35 0 0 15.67 0 35s15.67 35 35 35zm0-67.971c18.21 0 32.971 14.762 32.971 32.971 0 18.21-14.762 32.971-32.971 32.971C16.79 67.971 2.029 53.209 2.029 35 2.029 16.79 16.791 2.029 35 2.029zm6.915 25.87c0 3.76-2.136 7.101-5.34 8.98 5.767 2.298 9.825 7.729 9.825 13.995 0 1.044-.855 1.88-1.922 1.88-1.068 0-1.923-.836-1.923-1.88 0-6.266-5.126-11.488-11.747-11.488-6.407 0-11.746 5.222-11.746 11.488 0 1.044-.855 1.88-1.922 1.88-1.068 0-1.923-.836-1.923-1.88 0-6.475 4.058-11.906 9.825-13.994-3.204-1.88-5.34-5.222-5.34-8.981 0-5.849 5.34-10.653 11.32-10.653S41.915 22.05 41.915 27.9zm-18.368 0c0 3.968 3.204 7.101 7.261 7.101 4.059 0 7.262-3.133 7.262-7.101 0-3.969-3.203-7.102-7.262-7.102-4.057 0-7.261 3.133-7.261 7.102zm30.542-.418H47.04c-1.068 0-1.922-.836-1.708-1.671 0-.836.64-1.671 1.708-1.671h7.049c.854 0 1.708.627 1.708 1.67 0 .836-.64 1.672-1.708 1.672zm-8.97 3.133h8.97c.854 0 1.708.835 1.708 1.67 0 .836-.64 1.672-1.708 1.672h-8.97c-.855 0-1.71-.627-1.71-1.671 0-.836.641-1.671 1.71-1.671zm1.921 6.683h7.049c.854 0 1.708.836 1.708 1.672 0 .835-.64 1.67-1.708 1.67H47.04c-.854 0-1.708-.626-1.708-1.67 0-.836.64-1.672 1.708-1.672z" fill-rule="evenodd" fill="#000"/></svg>