<svg data-name="2" xmlns="http://www.w3.org/2000/svg" viewBox="0 0 12 12"><path d="M11.41.18l.02.02.02.02s.01.02.02.02c0 0 .01.02.02.02 0 0 .01.02.02.03 0 0 0 .02.01.03 0 0 0 .02.01.03 0 0 0 .02.01.03 0 0 0 .02.01.03V.83s0 .02-.01.03c0 0 0 .02-.01.03 0 0 0 .02-.01.03 0 0 0 .02-.01.03 0 0-.01.02-.02.03 0 0-.01.02-.02.02 0 0-.01.02-.02.02 0 0-.01.02-.02.02l-.02.02-.83.86 1.25 1.29.02.02.02.02s.01.02.02.02c0 0 .01.02.02.02 0 0 .01.02.02.03 0 0 0 .02.01.03 0 0 0 .02.01.03 0 0 0 .02.01.03 0 0 0 .02.01.03V3.86s0 .02-.01.03c0 0 0 .02-.01.03 0 0 0 .02-.01.03 0 0 0 .02-.01.03 0 0-.01.02-.02.03 0 0-.01.02-.02.02 0 0-.01.02-.02.02 0 0-.01.02-.02.02l-.02.02-2.08 2.15-.02.02-.02.02c-.01.01-.02.01-.02.02s-.02.01-.02.02c0 0-.02.01-.02.02 0 0-.02.01-.03.01 0 0-.02 0-.03.01 0 0-.02 0-.03.01 0 0-.02 0-.03.01H9.5h-.03-.03-.03-.03-.03-.06-.03-.03-.03-.03-.03-.03s-.02 0-.03-.01c0 0-.02 0-.03-.01 0 0-.02 0-.03-.01 0 0-.02 0-.03-.01 0 0-.02-.01-.02-.02 0 0-.02-.01-.02-.02s-.02-.01-.02-.02-.01-.01-.02-.02l-.02-.02-1.25-1.29-1.28 1.33s.06.09.09.14c.03.05.06.1.08.14.03.05.05.1.08.15.02.05.05.1.07.15.02.05.04.1.06.16.02.05.04.11.06.16.02.05.03.11.05.16.02.05.03.11.04.16.01.05.03.11.04.17l.03.17c0 .06.02.11.02.17 0 .06.01.11.01.17v.51c0 .06 0 .11-.02.17 0 .06-.02.11-.02.17 0 .06-.02.11-.03.17a.75.75 0 0 1-.04.16c-.01.05-.03.11-.05.16-.02.05-.03.11-.05.16-.02.05-.04.11-.06.16-.02.05-.04.1-.07.15-.02.05-.05.1-.07.15-.03.05-.05.1-.08.15-.03.05-.06.1-.09.14-.03.05-.06.09-.09.14-.03.05-.07.09-.1.13-.03.04-.07.09-.11.13-.04.04-.07.08-.11.12l-.12.12c-.04.04-.08.08-.12.11-.04.04-.08.07-.13.11l-.13.1c-.04.03-.09.06-.14.09-.05.03-.09.06-.14.09-.05.03-.1.05-.14.08-.05.03-.1.05-.15.07-.05.02-.1.05-.15.07l-.15.06c-.05.02-.1.04-.16.05a.75.75 0 0 1-.16.04c-.05.01-.11.03-.16.04l-.16.03c-.05 0-.11.01-.16.02-.05 0-.11 0-.16.01h-.32c-.05 0-.11 0-.16-.01-.05 0-.11-.01-.16-.02-.05 0-.11-.02-.16-.03l-.16-.03c-.05-.01-.11-.03-.16-.04s-.1-.03-.16-.05l-.15-.06-.15-.06c-.05-.02-.1-.05-.15-.07a.638.638 0 0 1-.14-.08c-.05-.03-.09-.06-.14-.09-.05-.03-.09-.06-.14-.09a.642.642 0 0 1-.13-.1l-.13-.1c-.04-.04-.08-.07-.12-.11l-.12-.12c-.04-.04-.08-.08-.11-.12-.04-.04-.07-.08-.11-.13l-.1-.13c-.03-.05-.06-.09-.1-.14-.03-.05-.06-.09-.09-.14-.03-.05-.06-.1-.08-.15-.03-.05-.05-.1-.08-.15-.02-.05-.05-.1-.07-.15s-.04-.1-.06-.16C.2 9.66.18 9.6.16 9.55.14 9.5.13 9.44.11 9.39.1 9.34.08 9.28.07 9.23l-.03-.17c0-.06-.02-.11-.03-.17 0-.06-.01-.11-.02-.17 0-.06 0-.11-.01-.17v-.17-.17c0-.06 0-.11.01-.17 0-.06.01-.11.02-.17 0-.06.02-.11.03-.17l.03-.17c.01-.06.03-.11.04-.16.02-.05.03-.11.05-.16.02-.05.04-.11.06-.16.02-.05.04-.1.06-.16.02-.05.05-.1.07-.15.02-.05.05-.1.08-.15.03-.05.05-.1.08-.15.03-.05.06-.1.09-.14.03-.05.06-.09.1-.14l.1-.13c.04-.04.07-.09.11-.13.04-.04.08-.08.11-.12l.12-.12c.04-.04.08-.07.12-.11.04-.04.09-.07.13-.1l.13-.1c.05-.03.09-.06.14-.09.05-.03.09-.06.14-.08.05-.03.1-.05.15-.08.05-.02.1-.05.15-.07l.15-.06.15-.06c.05-.02.1-.03.16-.05.05-.01.11-.03.16-.04l.16-.03c.05 0 .11-.02.16-.03.05 0 .11-.01.16-.02h.48c.05 0 .11 0 .16.01.05 0 .11.01.16.02.05 0 .11.02.16.03.05.01.11.02.16.04.05.01.11.03.16.05.05.02.1.03.16.05l.15.06c.05.02.1.04.15.07.05.02.1.05.15.07.05.03.1.05.14.08.05.03.09.06.14.09.05.03.09.06.14.1l1.28-1.33 1.37-1.42L10.58.18l.02-.02.02-.02s.02-.01.02-.02c0 0 .02-.01.02-.02 0 0 .02-.01.02-.02 0 0 .02-.01.03-.01 0 0 .02 0 .03-.01 0 0 .02 0 .03-.01 0 0 .02 0 .03-.01H11.22s.02 0 .03.01c0 0 .02 0 .03.01 0 0 .02 0 .03.01 0 0 .02 0 .03.01 0 0 .02.01.02.02 0 0 .02.01.02.02 0 0 .02.01.02.02l.02.02.02.02zM1.87 6.63s-.05.06-.08.09-.05.06-.08.09c-.02.03-.05.06-.07.09-.02.03-.05.06-.07.1-.02.03-.04.07-.06.1-.02.03-.04.07-.06.1-.02.04-.04.07-.05.11-.02.04-.03.07-.05.11-.02.04-.03.07-.04.11-.01.04-.03.08-.04.11l-.03.12c0 .04-.02.08-.03.12 0 .04-.01.08-.02.12 0 .04-.01.08-.01.12v.48c0 .04 0 .08.01.12 0 .04.01.08.02.12 0 .04.02.08.02.12 0 .04.02.08.03.12.01.04.02.08.04.11.01.04.03.08.04.11.01.04.03.07.05.11.02.04.03.07.05.11.02.04.04.07.06.1.02.03.04.07.06.1.02.03.04.07.07.1.02.03.05.06.07.09.02.03.05.06.08.09s.05.06.08.09l.08.08c.03.03.06.05.09.08s.06.05.09.07c.03.02.06.05.09.07.03.02.06.04.1.06.03.02.07.04.1.06.03.02.07.04.1.05.04.02.07.03.11.05.04.02.07.03.11.04.04.01.07.03.11.04l.11.03c.04 0 .08.02.11.03.04 0 .08.01.11.02.04 0 .08.01.12.01h.48c.04 0 .08 0 .12-.02.04 0 .08-.01.11-.02.04 0 .08-.02.11-.03l.11-.03c.04-.01.07-.02.11-.04.04-.01.07-.03.11-.04.04-.02.07-.03.11-.05s.07-.04.1-.06c.03-.02.07-.04.1-.06.03-.02.07-.04.1-.07.03-.02.06-.05.09-.07.03-.02.06-.05.09-.07.03-.03.06-.05.09-.08l.08-.08c.03-.03.05-.06.08-.09a.55.55 0 0 0 .07-.09c.02-.03.05-.06.07-.09.02-.03.04-.06.06-.1.02-.03.04-.07.06-.1.02-.03.04-.07.06-.1.02-.04.03-.07.05-.11.02-.04.03-.07.05-.11.01-.04.03-.07.04-.11.01-.04.02-.07.04-.11.01-.04.02-.08.03-.11 0-.04.02-.08.02-.12 0-.04.01-.08.02-.12 0-.04 0-.08.01-.12v-.12-.12-.12-.12c0-.04 0-.08-.01-.12 0-.04-.01-.08-.02-.12 0-.04-.02-.08-.03-.12 0-.04-.02-.08-.03-.11a.358.358 0 0 0-.04-.11c-.01-.04-.03-.07-.04-.11-.01-.04-.03-.07-.05-.11-.02-.04-.03-.07-.05-.11-.02-.03-.04-.07-.06-.1-.02-.03-.04-.07-.06-.1-.02-.03-.04-.07-.07-.1-.02-.03-.05-.06-.07-.09-.02-.03-.05-.06-.07-.09-.03-.03-.05-.06-.08-.09s-.05-.06-.08-.08c-.03-.03-.06-.05-.09-.08a.55.55 0 0 0-.09-.07c-.03-.02-.06-.05-.09-.07-.03-.02-.06-.04-.1-.06-.03-.02-.07-.04-.1-.06a.467.467 0 0 0-.1-.05c-.03-.02-.07-.03-.1-.05a.487.487 0 0 0-.11-.04c-.04-.01-.07-.03-.11-.04l-.11-.03c-.04 0-.07-.02-.11-.03-.04 0-.07-.01-.11-.02a.36.36 0 0 1-.11-.02h-.44c-.04 0-.08 0-.11.01a.36.36 0 0 0-.11.02c-.04 0-.07.02-.11.03-.04 0-.07.02-.11.03-.04.01-.07.02-.11.04-.04.01-.07.03-.11.04-.04.01-.07.03-.11.05-.03.02-.07.03-.1.05-.03.02-.07.04-.1.06-.03.02-.07.04-.1.06a.55.55 0 0 0-.09.07c-.03.02-.06.05-.09.07-.03.02-.06.05-.09.08s-.06.05-.08.08zm6.64-2.58l.83.86 1.25-1.29-.83-.86-1.25 1.29z" data-name="1"/></svg>