
<svg width="12" height="12" xmlns="http://www.w3.org/2000/svg">
  <path d="M11.41,.18s.01,.01,.02,.02c0,0,.01,.01,.02,.02,0,0,.01,.02,.02,.02,0,0,.01,.02,.02,.02,0,0,.01,.02,.02,.03,0,0,0,.02,.01,.03,0,0,0,.02,.01,.03,0,0,0,.02,.01,.03,0,0,0,.02,.01,.03,0,0,0,.02,0,.03,0,0,0,.02,0,.03,0,0,0,.02,0,.03,0,0,0,.02,0,.03,0,0,0,.02,0,.03,0,0,0,.02,0,.03,0,0,0,.02,0,.03s0,.02,0,.03c0,0,0,.02,0,.03,0,0,0,.02,0,.03,0,0,0,.02,0,.03,0,0,0,.02,0,.03,0,0,0,.02,0,.03,0,0,0,.02,0,.03,0,0,0,.02-.01,.03,0,0,0,.02-.01,.03,0,0,0,.02-.01,.03,0,0,0,.02-.01,.03,0,0-.01,.02-.02,.03,0,0-.01,.02-.02,.02,0,0-.01,.02-.02,.02,0,0-.01,.02-.02,.02,0,0-.01,.01-.02,.02l-.83,.86,1.25,1.29s.01,.01,.02,.02c0,0,.01,.01,.02,.02,0,0,.01,.02,.02,.02,0,0,.01,.02,.02,.02,0,0,.01,.02,.02,.03,0,0,0,.02,.01,.03,0,0,0,.02,.01,.03,0,0,0,.02,.01,.03,0,0,0,.02,.01,.03,0,0,0,.02,0,.03,0,0,0,.02,0,.03s0,.02,0,.03c0,0,0,.02,0,.03,0,0,0,.02,0,.03,0,0,0,.02,0,.03,0,0,0,.02,0,.03s0,.02,0,.03c0,0,0,.02,0,.03,0,0,0,.02,0,.03,0,0,0,.02,0,.03,0,0,0,.02,0,.03,0,0,0,.02,0,.03,0,0,0,.02,0,.03,0,0,0,.02-.01,.03,0,0,0,.02-.01,.03,0,0,0,.02-.01,.03,0,0,0,.02-.01,.03,0,0-.01,.02-.02,.03,0,0-.01,.02-.02,.02,0,0-.01,.02-.02,.02,0,0-.01,.02-.02,.02,0,0-.01,.01-.02,.02l-2.08,2.15s-.01,.01-.02,.02c0,0-.01,.01-.02,.02s-.02,.01-.02,.02-.02,.01-.02,.02c0,0-.02,.01-.02,.02,0,0-.02,.01-.03,.01,0,0-.02,0-.03,.01,0,0-.02,0-.03,.01,0,0-.02,0-.03,.01,0,0-.02,0-.03,0,0,0-.02,0-.03,0,0,0-.02,0-.03,0,0,0-.02,0-.03,0,0,0-.02,0-.03,0,0,0-.02,0-.03,0,0,0-.02,0-.03,0s-.02,0-.03,0c0,0-.02,0-.03,0,0,0-.02,0-.03,0,0,0-.02,0-.03,0,0,0-.02,0-.03,0,0,0-.02,0-.03,0,0,0-.02,0-.03,0,0,0-.02,0-.03-.01,0,0-.02,0-.03-.01,0,0-.02,0-.03-.01,0,0-.02,0-.03-.01,0,0-.02-.01-.02-.02,0,0-.02-.01-.02-.02s-.02-.01-.02-.02-.01-.01-.02-.02c0,0-.01-.01-.02-.02l-1.25-1.29-1.28,1.33s.06,.09,.09,.14c.03,.05,.06,.1,.08,.14,.03,.05,.05,.1,.08,.15,.02,.05,.05,.1,.07,.15,.02,.05,.04,.1,.06,.16,.02,.05,.04,.11,.06,.16,.02,.05,.03,.11,.05,.16,.02,.05,.03,.11,.04,.16,.01,.05,.03,.11,.04,.17,.01,.06,.02,.11,.03,.17,0,.06,.02,.11,.02,.17,0,.06,.01,.11,.01,.17,0,.06,0,.11,0,.17,0,.06,0,.11,0,.17,0,.06,0,.11,0,.17,0,.06,0,.11-.02,.17,0,.06-.02,.11-.02,.17,0,.06-.02,.11-.03,.17-.01,.06-.02,.11-.04,.16-.01,.05-.03,.11-.05,.16-.02,.05-.03,.11-.05,.16-.02,.05-.04,.11-.06,.16-.02,.05-.04,.1-.07,.15-.02,.05-.05,.1-.07,.15-.03,.05-.05,.1-.08,.15-.03,.05-.06,.1-.09,.14-.03,.05-.06,.09-.09,.14-.03,.05-.07,.09-.1,.13-.03,.04-.07,.09-.11,.13-.04,.04-.07,.08-.11,.12-.04,.04-.08,.08-.12,.12-.04,.04-.08,.08-.12,.11-.04,.04-.08,.07-.13,.11-.04,.03-.09,.07-.13,.1-.04,.03-.09,.06-.14,.09-.05,.03-.09,.06-.14,.09-.05,.03-.1,.05-.14,.08-.05,.03-.1,.05-.15,.07-.05,.02-.1,.05-.15,.07-.05,.02-.1,.04-.15,.06-.05,.02-.1,.04-.16,.05-.05,.02-.1,.03-.16,.04-.05,.01-.11,.03-.16,.04-.05,.01-.11,.02-.16,.03-.05,0-.11,.01-.16,.02-.05,0-.11,0-.16,.01-.05,0-.11,0-.16,0-.05,0-.11,0-.16,0-.05,0-.11,0-.16-.01-.05,0-.11-.01-.16-.02-.05,0-.11-.02-.16-.03-.05-.01-.11-.02-.16-.03-.05-.01-.11-.03-.16-.04s-.1-.03-.16-.05c-.05-.02-.1-.04-.15-.06-.05-.02-.1-.04-.15-.06-.05-.02-.1-.05-.15-.07-.05-.02-.1-.05-.14-.08-.05-.03-.09-.06-.14-.09-.05-.03-.09-.06-.14-.09-.05-.03-.09-.06-.13-.1-.04-.03-.09-.07-.13-.1-.04-.04-.08-.07-.12-.11-.04-.04-.08-.08-.12-.12-.04-.04-.08-.08-.11-.12-.04-.04-.07-.08-.11-.13-.03-.04-.07-.09-.1-.13-.03-.05-.06-.09-.1-.14-.03-.05-.06-.09-.09-.14-.03-.05-.06-.1-.08-.15-.03-.05-.05-.1-.08-.15-.02-.05-.05-.1-.07-.15s-.04-.1-.06-.16c-.02-.05-.04-.11-.06-.16-.02-.05-.03-.11-.05-.16-.01-.05-.03-.11-.04-.16-.01-.06-.02-.11-.03-.17,0-.06-.02-.11-.03-.17,0-.06-.01-.11-.02-.17,0-.06,0-.11-.01-.17,0-.06,0-.11,0-.17,0-.06,0-.11,0-.17,0-.06,0-.11,.01-.17,0-.06,.01-.11,.02-.17,0-.06,.02-.11,.03-.17,.01-.06,.02-.11,.03-.17,.01-.06,.03-.11,.04-.16,.02-.05,.03-.11,.05-.16,.02-.05,.04-.11,.06-.16,.02-.05,.04-.1,.06-.16,.02-.05,.05-.1,.07-.15,.02-.05,.05-.1,.08-.15,.03-.05,.05-.1,.08-.15,.03-.05,.06-.1,.09-.14,.03-.05,.06-.09,.1-.14,.03-.04,.07-.09,.1-.13,.04-.04,.07-.09,.11-.13,.04-.04,.08-.08,.11-.12,.04-.04,.08-.08,.12-.12,.04-.04,.08-.07,.12-.11,.04-.04,.09-.07,.13-.1,.04-.03,.09-.07,.13-.1,.05-.03,.09-.06,.14-.09,.05-.03,.09-.06,.14-.08,.05-.03,.1-.05,.15-.08,.05-.02,.1-.05,.15-.07,.05-.02,.1-.04,.15-.06,.05-.02,.1-.04,.15-.06,.05-.02,.1-.03,.16-.05,.05-.01,.11-.03,.16-.04,.05-.01,.11-.02,.16-.03,.05,0,.11-.02,.16-.03,.05,0,.11-.01,.16-.02,.05,0,.11,0,.16,0,.05,0,.11,0,.16,0,.05,0,.11,0,.16,0,.05,0,.11,0,.16,.01,.05,0,.11,.01,.16,.02,.05,0,.11,.02,.16,.03,.05,.01,.11,.02,.16,.04,.05,.01,.11,.03,.16,.05,.05,.02,.1,.03,.16,.05,.05,.02,.1,.04,.15,.06,.05,.02,.1,.04,.15,.07,.05,.02,.1,.05,.15,.07,.05,.03,.1,.05,.14,.08,.05,.03,.09,.06,.14,.09,.05,.03,.09,.06,.14,.1l1.28-1.33,1.37-1.42L10.58,.18s.01-.01,.02-.02c0,0,.01-.01,.02-.02,0,0,.02-.01,.02-.02,0,0,.02-.01,.02-.02,0,0,.02-.01,.02-.02,0,0,.02-.01,.03-.01,0,0,.02,0,.03-.01,0,0,.02,0,.03-.01,0,0,.02,0,.03-.01,0,0,.02,0,.03,0,0,0,.02,0,.03,0,0,0,.02,0,.03,0,0,0,.02,0,.03,0,0,0,.02,0,.03,0,0,0,.02,0,.03,0,0,0,.02,0,.03,0s.02,0,.03,0c0,0,.02,0,.03,0,0,0,.02,0,.03,0,0,0,.02,0,.03,0,0,0,.02,0,.03,0,0,0,.02,0,.03,0,0,0,.02,0,.03,0,0,0,.02,0,.03,.01,0,0,.02,0,.03,.01,0,0,.02,0,.03,.01,0,0,.02,0,.03,.01,0,0,.02,.01,.02,.02,0,0,.02,.01,.02,.02,0,0,.02,.01,.02,.02,0,0,.01,.01,.02,.02,0,0,.01,.01,.02,.02h0ZM1.87,6.63s-.05,.06-.08,.09c-.03,.03-.05,.06-.08,.09-.02,.03-.05,.06-.07,.09-.02,.03-.05,.06-.07,.1-.02,.03-.04,.07-.06,.1-.02,.03-.04,.07-.06,.1-.02,.04-.04,.07-.05,.11-.02,.04-.03,.07-.05,.11-.02,.04-.03,.07-.04,.11-.01,.04-.03,.08-.04,.11-.01,.04-.02,.08-.03,.12,0,.04-.02,.08-.03,.12,0,.04-.01,.08-.02,.12,0,.04-.01,.08-.01,.12,0,.04,0,.08,0,.12,0,.04,0,.08,0,.12,0,.04,0,.08,0,.12,0,.04,0,.08,0,.12,0,.04,0,.08,.01,.12,0,.04,.01,.08,.02,.12,0,.04,.02,.08,.02,.12,0,.04,.02,.08,.03,.12,.01,.04,.02,.08,.04,.11,.01,.04,.03,.08,.04,.11,.01,.04,.03,.07,.05,.11,.02,.04,.03,.07,.05,.11,.02,.04,.04,.07,.06,.1,.02,.03,.04,.07,.06,.1,.02,.03,.04,.07,.07,.1,.02,.03,.05,.06,.07,.09,.02,.03,.05,.06,.08,.09,.03,.03,.05,.06,.08,.09,.03,.03,.06,.06,.08,.08,.03,.03,.06,.05,.09,.08,.03,.03,.06,.05,.09,.07,.03,.02,.06,.05,.09,.07,.03,.02,.06,.04,.1,.06,.03,.02,.07,.04,.1,.06,.03,.02,.07,.04,.1,.05,.04,.02,.07,.03,.11,.05,.04,.02,.07,.03,.11,.04,.04,.01,.07,.03,.11,.04,.04,.01,.07,.02,.11,.03,.04,0,.08,.02,.11,.03,.04,0,.08,.01,.11,.02,.04,0,.08,.01,.12,.01,.04,0,.08,0,.12,0,.04,0,.08,0,.12,0,.04,0,.08,0,.12,0,.04,0,.08,0,.12,0,.04,0,.08,0,.12-.02,.04,0,.08-.01,.11-.02,.04,0,.08-.02,.11-.03,.04-.01,.07-.02,.11-.03,.04-.01,.07-.02,.11-.04,.04-.01,.07-.03,.11-.04,.04-.02,.07-.03,.11-.05s.07-.04,.1-.06c.03-.02,.07-.04,.1-.06,.03-.02,.07-.04,.1-.07,.03-.02,.06-.05,.09-.07,.03-.02,.06-.05,.09-.07,.03-.03,.06-.05,.09-.08,.03-.03,.06-.06,.08-.08,.03-.03,.05-.06,.08-.09,.03-.03,.05-.06,.07-.09,.02-.03,.05-.06,.07-.09,.02-.03,.04-.06,.06-.1,.02-.03,.04-.07,.06-.1,.02-.03,.04-.07,.06-.1,.02-.04,.03-.07,.05-.11,.02-.04,.03-.07,.05-.11,.01-.04,.03-.07,.04-.11,.01-.04,.02-.07,.04-.11,.01-.04,.02-.08,.03-.11,0-.04,.02-.08,.02-.12,0-.04,.01-.08,.02-.12,0-.04,0-.08,.01-.12,0-.04,0-.08,0-.12,0-.04,0-.08,0-.12,0-.04,0-.08,0-.12,0-.04,0-.08,0-.12,0-.04,0-.08-.01-.12,0-.04-.01-.08-.02-.12,0-.04-.02-.08-.03-.12,0-.04-.02-.08-.03-.11-.01-.04-.02-.08-.04-.11-.01-.04-.03-.07-.04-.11-.01-.04-.03-.07-.05-.11-.02-.04-.03-.07-.05-.11-.02-.03-.04-.07-.06-.1-.02-.03-.04-.07-.06-.1-.02-.03-.04-.07-.07-.1-.02-.03-.05-.06-.07-.09-.02-.03-.05-.06-.07-.09-.03-.03-.05-.06-.08-.09-.03-.03-.05-.06-.08-.08-.03-.03-.06-.05-.09-.08-.03-.03-.06-.05-.09-.07-.03-.02-.06-.05-.09-.07-.03-.02-.06-.04-.1-.06-.03-.02-.07-.04-.1-.06-.03-.02-.07-.04-.1-.05-.03-.02-.07-.03-.1-.05-.04-.02-.07-.03-.11-.04-.04-.01-.07-.03-.11-.04-.04-.01-.07-.02-.11-.03-.04,0-.07-.02-.11-.03-.04,0-.07-.01-.11-.02-.04,0-.08-.01-.11-.02-.04,0-.08,0-.11,0-.04,0-.08,0-.11,0-.04,0-.08,0-.11,0-.04,0-.08,0-.11,0-.04,0-.08,0-.11,.01-.04,0-.08,.01-.11,.02-.04,0-.07,.02-.11,.03-.04,0-.07,.02-.11,.03-.04,.01-.07,.02-.11,.04-.04,.01-.07,.03-.11,.04-.04,.01-.07,.03-.11,.05-.03,.02-.07,.03-.1,.05-.03,.02-.07,.04-.1,.06-.03,.02-.07,.04-.1,.06-.03,.02-.06,.04-.09,.07-.03,.02-.06,.05-.09,.07-.03,.02-.06,.05-.09,.08-.03,.03-.06,.05-.08,.08Zm6.64-2.58l.83,.86,1.25-1.29-.83-.86-1.25,1.29h0Z"/>
</svg>
