<svg xmlns="http://www.w3.org/2000/svg" width="12.572" height="12.698" viewBox="0 0 12.572 12.698" fill="none"><path fill="#383838" d="M6.468 0q1.764 0 3.15.742t2.17 2.142q.784 1.4.784 3.318 0 1.638-.63 2.639T10.08 9.842q-.7 0-1.197-.329-.497-.329-.707-.987-.336.658-.924.98-.588.322-1.26.322-.77 0-1.428-.406-.658-.406-1.057-1.176-.399-.77-.399-1.834 0-1.05.4-1.827.398-.777 1.056-1.19.658-.413 1.428-.413.602 0 1.148.273.546.273.91.819.042-.252.07-.924h1.134v4.172q0 1.344.882 1.344.644 0 .924-.672t.28-1.722q0-1.61-.623-2.758T8.988 1.771q-1.106-.595-2.562-.595-1.512 0-2.695.651-1.183.651-1.848 1.834T1.218 6.37q0 1.512.651 2.681t1.82 1.82q1.17.651 2.667.651.84 0 1.561-.203t1.267-.567l.56.952q-.574.476-1.449.735-.875.259-1.939.259-1.848 0-3.29-.798T.812 9.66Q0 8.218 0 6.37q0-1.862.833-3.311Q1.666 1.61 3.136.805 4.606 0 6.468 0zM6.16 8.554q.742 0 1.267-.511.525-.511.525-1.631 0-1.106-.525-1.617-.525-.511-1.267-.511-.77 0-1.218.553-.448.553-.448 1.575 0 1.022.448 1.582t1.218.56z"/></svg>