<svg xmlns="http://www.w3.org/2000/svg" fill="none" class="icon icon-cart" viewBox="0 0 34 34">
  <path fill="currentColor" fill-rule="evenodd" d="M27.14 28.66c-1.49 0-2.7 1.2-2.7 2.67s1.21 2.67 2.7 2.67 2.7-1.2 2.7-2.67-1.21-2.67-2.7-2.67Zm-17.1 0c-1.49 0-2.7 1.2-2.7 2.67s1.21 2.67 2.7 2.67 2.7-1.2 2.7-2.67-1.21-2.67-2.7-2.67ZM33.28 5.96c-.63-.79-1.6-1.24-2.66-1.24H9.8c-.61 0-1.19.57-1.19 1.18s.58 1.18 1.19 1.18h20.83c.26 0 .62.05.81.3.16.2.19.5.1.88l-2.56 10.13c-.21 1.07-1.44 1.89-2.45 1.99l-14.42 1.03c-.31 0-.62.15-.82.41-.21.26-.3.58-.24.91.01.57.52 1.05 1.12 1.05.07 0 .14 0 .21-.02l14.41-1.03c2.04-.12 4.04-1.77 4.54-3.76l2.56-10.13c.24-1.03.02-2.08-.62-2.87Zm-1.72 19.82H12.01c-.89 0-1.86-.82-2.07-1.75L6.45 3.66C6.08 1.61 4.13 0 2 0h-.81C.58 0 0 .57 0 1.18s.58 1.18 1.19 1.18h.81c.89 0 1.86.82 2.07 1.75l3.49 20.37c.37 2.05 2.32 3.66 4.44 3.66h19.56c.61 0 1.19-.57 1.19-1.18s-.44-1.18-1.19-1.18Z"/>
</svg>