<svg xmlns="http://www.w3.org/2000/svg" xmlns:xlink="http://www.w3.org/1999/xlink" width="50" height="50" viewBox="0 0 50 50" fill="none">
<path d="M11.4175 22.6563L24.9991 43.4531L26.2661 41.4844C26.2661 41.4844 37.7154 24.0782 38.627 22.6563C38.7018 22.5231 38.7744 22.3887 38.8449 22.2531C38.9154 22.1175 38.9836 21.9808 39.0497 21.843C39.1158 21.7051 39.1796 21.5663 39.2413 21.4263C39.3029 21.2865 39.3622 21.1455 39.4193 21.0036C39.4764 20.8617 39.5312 20.7189 39.5836 20.5754C39.6361 20.4316 39.6863 20.2871 39.7342 20.1418C39.782 19.9964 39.8275 19.8504 39.8707 19.7037C39.9139 19.5568 39.9546 19.4093 39.993 19.2611C40.0315 19.113 40.0675 18.9642 40.1012 18.8149C40.1349 18.6656 40.166 18.5157 40.1948 18.3652C40.2237 18.2149 40.25 18.0641 40.274 17.9129C40.298 17.7617 40.3196 17.61 40.3386 17.4581C40.3577 17.3062 40.3744 17.154 40.3886 17.0014C40.4028 16.849 40.4146 16.6963 40.4239 16.5434C40.4332 16.3905 40.4401 16.2375 40.4445 16.0844C40.4489 15.9314 40.4508 15.7782 40.4503 15.625C40.4503 15.3693 40.4441 15.1138 40.4317 14.8584C40.4193 14.6029 40.4006 14.348 40.3758 14.0935C40.351 13.839 40.3202 13.5853 40.283 13.3324C40.2459 13.0794 40.2027 12.8276 40.1533 12.5767C40.1041 12.3259 40.0487 12.0764 39.9872 11.8285C39.9258 11.5804 39.8583 11.334 39.7849 11.0893C39.7115 10.8446 39.6322 10.6019 39.547 10.3611C39.4619 10.1203 39.3709 9.88184 39.2741 9.64557C39.1773 9.40933 39.0749 9.17564 38.9667 8.94443C38.8587 8.71329 38.745 8.48497 38.6258 8.25943C38.5066 8.03389 38.382 7.81147 38.252 7.59214C38.1219 7.37281 37.9867 7.15684 37.8462 6.94424C37.7058 6.7316 37.5602 6.52261 37.4095 6.31719C37.259 6.11182 37.1035 5.91031 36.943 5.7126C36.7825 5.51495 36.6174 5.32139 36.4476 5.13189C36.2778 4.94243 36.1035 4.75728 35.9247 4.57646C35.746 4.39564 35.5628 4.21937 35.3754 4.04764C35.188 3.87592 34.9966 3.70894 34.8012 3.54671C34.6057 3.38449 34.4064 3.22721 34.2033 3.07489C34.0002 2.92255 33.7935 2.77535 33.5832 2.63328C33.373 2.49123 33.1595 2.35445 32.9426 2.22299C32.7257 2.09153 32.5058 1.96553 32.2827 1.84498C32.0597 1.72444 31.8339 1.6095 31.6053 1.50017C31.3767 1.39084 31.1456 1.28724 30.912 1.18939C30.6784 1.09152 30.4425 0.999522 30.2044 0.913375C29.9664 0.827227 29.7263 0.747036 29.4843 0.672808C29.2423 0.598575 28.9987 0.530396 28.7535 0.468262C28.5081 0.406128 28.2614 0.350118 28.0134 0.30023C27.7655 0.250343 27.5164 0.206638 27.2662 0.169117C27.0161 0.131597 26.7652 0.100303 26.5135 0.0752388C26.2619 0.0501743 26.0098 0.0313683 25.7573 0.018821C25.5047 0.00627368 25.2519 0 24.9991 0C24.7462 1.6256e-08 24.4935 0.0062737 24.2409 0.018821C23.9884 0.0313683 23.7363 0.0501743 23.4846 0.0752388C23.2329 0.100303 22.9821 0.131597 22.7319 0.169117C22.4818 0.206638 22.2327 0.250343 21.9847 0.30023C21.7367 0.350118 21.49 0.406128 21.2447 0.468262C20.9995 0.530396 20.7558 0.598575 20.5138 0.672808C20.2719 0.747036 20.0318 0.827227 19.7938 0.913375C19.5557 0.999522 19.3198 1.09152 19.0861 1.18939C18.8525 1.28724 18.6215 1.39084 18.3929 1.50017C18.1643 1.6095 17.9385 1.72444 17.7154 1.84498C17.4924 1.96553 17.2725 2.09153 17.0555 2.22299C16.8386 2.35445 16.6252 2.49123 16.4149 2.63328C16.2046 2.77535 15.998 2.92255 15.7948 3.07489C15.5918 3.22721 15.3925 3.38449 15.197 3.54671C15.0015 3.70894 14.8101 3.87592 14.6227 4.04764C14.4354 4.21937 14.2522 4.39564 14.0734 4.57646C13.8946 4.75728 13.7203 4.94243 13.5505 5.13189C13.3807 5.32139 13.2156 5.51495 13.0551 5.7126C12.8947 5.91031 12.7392 6.11182 12.5886 6.31719C12.438 6.52261 12.2924 6.7316 12.1519 6.94424C12.0114 7.15684 11.8761 7.3728 11.7462 7.59214C11.6162 7.81147 11.4915 8.03389 11.3724 8.25943C11.2532 8.48497 11.1395 8.71329 11.0314 8.94443C10.9233 9.17564 10.8209 9.40933 10.7241 9.64557C10.6273 9.88184 10.5363 10.1203 10.4512 10.3611C10.3659 10.6019 10.2866 10.8446 10.2133 11.0893C10.1398 11.334 10.0724 11.5804 10.011 11.8285C9.94951 12.0764 9.89412 12.3259 9.84481 12.5767C9.79546 12.8276 9.75223 13.0794 9.71512 13.3324C9.67803 13.5853 9.6471 13.839 9.62231 14.0935C9.59753 14.348 9.57892 14.6029 9.5665 14.8584C9.5541 15.1138 9.54791 15.3693 9.54791 15.625C9.54849 15.7785 9.55152 15.9318 9.55698 16.0851C9.56246 16.2383 9.5704 16.3916 9.58079 16.5446C9.59116 16.6976 9.60398 16.8505 9.61927 17.0031C9.63453 17.1557 9.65224 17.3081 9.67238 17.4602C9.69253 17.6122 9.71512 17.7639 9.74013 17.9151C9.76514 18.0665 9.79255 18.2173 9.82236 18.3678C9.85219 18.5183 9.88444 18.668 9.91907 18.8174C9.95371 18.9668 9.99072 19.1156 10.0302 19.2637C10.0694 19.4118 10.1112 19.5593 10.1554 19.7061C10.1995 19.8528 10.246 19.9989 10.2947 20.1441C10.3435 20.2894 10.3946 20.4339 10.448 20.5774C10.5014 20.721 10.5571 20.8637 10.6151 21.0054C10.673 21.1472 10.7332 21.288 10.7958 21.4278C10.8582 21.5676 10.9229 21.7063 10.9899 21.844C11.0567 21.9816 11.1259 22.1182 11.1972 22.2537C11.2684 22.389 11.3419 22.5233 11.4175 22.6563ZM24.3926 3.14006C24.5947 3.13002 24.7969 3.12501 24.9991 3.12501C25.2013 3.12501 25.4035 3.13002 25.6055 3.14005C25.8076 3.15009 26.0093 3.16514 26.2106 3.18519C26.412 3.20525 26.6127 3.23028 26.8128 3.26029C27.0129 3.29031 27.2121 3.32527 27.4105 3.36518C27.6089 3.4051 27.8063 3.44991 28.0025 3.49961C28.1987 3.54932 28.3937 3.60387 28.5872 3.66324C28.7809 3.72263 28.9729 3.78678 29.1634 3.85569C29.3539 3.92462 29.5425 3.99822 29.7294 4.07651C29.9163 4.15479 30.1012 4.23767 30.2841 4.32513C30.4669 4.4126 30.6476 4.50455 30.826 4.60099C31.0044 4.69742 31.1803 4.79821 31.3539 4.90337C31.5274 5.00854 31.6983 5.11797 31.8665 5.23165C32.0346 5.34527 32.2 5.46304 32.3625 5.58492C32.525 5.70674 32.6844 5.83257 32.8408 5.96236C32.9972 6.09214 33.1503 6.22574 33.3002 6.36308C33.4501 6.50049 33.5965 6.64151 33.7396 6.78618C33.8827 6.93081 34.0221 7.07891 34.158 7.23052C34.2938 7.38209 34.4259 7.53692 34.5543 7.69507C34.6826 7.85322 34.807 8.01446 34.9275 8.17877C35.048 8.34307 35.1644 8.5103 35.2768 8.68038C35.3892 8.85045 35.4975 9.02325 35.6014 9.19874C35.7054 9.37417 35.8051 9.5521 35.9005 9.73252C35.9958 9.91295 36.0868 10.0957 36.1732 10.2806C36.2597 10.4655 36.3417 10.6524 36.4191 10.8415C36.4965 11.0305 36.5693 11.2212 36.6374 11.4139C36.7056 11.6065 36.769 11.8006 36.8278 11.9965C36.8865 12.1922 36.9405 12.3893 36.9895 12.5877C37.0387 12.7861 37.0831 12.9857 37.1225 13.1864C37.1619 13.387 37.1965 13.5885 37.2262 13.7908C37.2559 13.9932 37.2807 14.1962 37.3005 14.3998C37.3204 14.6034 37.3352 14.8073 37.3452 15.0117C37.355 15.2161 37.36 15.4205 37.36 15.625C37.3599 15.741 37.3579 15.8569 37.3542 15.9729C37.3506 16.0888 37.345 16.2046 37.3376 16.3204C37.3302 16.4361 37.321 16.5517 37.31 16.6671C37.299 16.7826 37.2861 16.8978 37.2715 17.0129C37.2568 17.1278 37.2404 17.2426 37.2221 17.3571C37.2038 17.4716 37.1837 17.5858 37.1619 17.6996C37.1401 17.8134 37.1165 17.927 37.091 18.04C37.0656 18.1531 37.0384 18.2657 37.0095 18.378C36.9805 18.4902 36.9498 18.6019 36.9173 18.7132C36.8848 18.8244 36.8506 18.9351 36.8146 19.0453C36.7786 19.1554 36.7411 19.2649 36.7016 19.3738C36.6622 19.4827 36.6211 19.591 36.5783 19.6985C36.5355 19.8062 36.491 19.913 36.4448 20.0192C36.3986 20.1254 36.3509 20.2308 36.3013 20.3354C36.2518 20.44 36.2007 20.5438 36.148 20.6468C36.0952 20.7498 36.0408 20.852 35.9848 20.9532C35.2741 22.0625 27.9966 33.1093 24.9991 37.7968L14.0596 21.0313C14.0019 20.9289 13.9458 20.8255 13.8913 20.7214C13.8369 20.6172 13.7841 20.5122 13.733 20.4062C13.6819 20.3003 13.6325 20.1936 13.5848 20.0859C13.5371 19.9784 13.4912 19.8701 13.4469 19.761C13.4028 19.652 13.3603 19.5423 13.3195 19.4318C13.2788 19.3214 13.2399 19.2103 13.2028 19.0986C13.1656 18.987 13.1302 18.8746 13.0966 18.7617C13.063 18.6489 13.0313 18.5355 13.0014 18.4216C12.9714 18.3076 12.9432 18.1934 12.9169 18.0785C12.8906 17.9637 12.8662 17.8485 12.8436 17.7328C12.821 17.6172 12.8003 17.5012 12.7814 17.3849C12.7624 17.2686 12.7454 17.152 12.7302 17.0352C12.715 16.9184 12.7017 16.8013 12.6903 16.6839C12.6788 16.5667 12.6693 16.4492 12.6616 16.3317C12.6539 16.214 12.6482 16.0962 12.6443 15.9785C12.6404 15.8607 12.6383 15.7428 12.6382 15.625C12.6382 15.4205 12.6431 15.2161 12.653 15.0117C12.6629 14.8073 12.6778 14.6034 12.6977 14.3998C12.7175 14.1962 12.7423 13.9932 12.772 13.7908C12.8016 13.5885 12.8362 13.387 12.8756 13.1864C12.9151 12.9857 12.9594 12.7861 13.0086 12.5877C13.0577 12.3893 13.1117 12.1922 13.1704 11.9965C13.2292 11.8006 13.2926 11.6065 13.3607 11.4139C13.4289 11.2212 13.5016 11.0305 13.5791 10.8415C13.6564 10.6524 13.7384 10.4655 13.825 10.2806C13.9114 10.0957 14.0024 9.91295 14.0977 9.73252C14.1931 9.5521 14.2927 9.37417 14.3968 9.19874C14.5007 9.02325 14.609 8.85045 14.7213 8.68038C14.8338 8.5103 14.9502 8.34307 15.0707 8.17877C15.1912 8.01446 15.3156 7.85322 15.4439 7.69507C15.5723 7.53692 15.7044 7.38209 15.8402 7.23052C15.9761 7.07891 16.1155 6.93081 16.2586 6.78618C16.4016 6.64151 16.5481 6.50049 16.698 6.36308C16.8478 6.22574 17.001 6.09214 17.1574 5.96236C17.3138 5.83257 17.4732 5.70674 17.6356 5.58492C17.7982 5.46304 17.9636 5.34527 18.1317 5.23165C18.2999 5.11797 18.4707 5.00854 18.6443 4.90337C18.8178 4.79821 18.9938 4.69742 19.1722 4.60099C19.3506 4.50455 19.5313 4.4126 19.7141 4.32513C19.8969 4.23767 20.0818 4.15479 20.2687 4.07651C20.4556 3.99822 20.6443 3.92462 20.8348 3.85569C21.0252 3.78678 21.2173 3.72263 21.4109 3.66325C21.6045 3.60387 21.7994 3.54932 21.9957 3.49961C22.1919 3.44991 22.3892 3.4051 22.5876 3.36518C22.786 3.32527 22.9853 3.29031 23.1854 3.26029C23.3855 3.23028 23.5862 3.20525 23.7876 3.18519C23.9889 3.16514 24.1905 3.15009 24.3926 3.14006ZM24.6967 21.8675C24.7978 21.8726 24.8988 21.875 25 21.875C25.1012 21.875 25.2022 21.8726 25.3033 21.8675C25.4042 21.8625 25.5051 21.855 25.6057 21.845C25.7065 21.835 25.8067 21.8224 25.9068 21.8074C26.0069 21.7924 26.1065 21.7748 26.2057 21.7549C26.3049 21.7349 26.4035 21.7126 26.5017 21.6877C26.5998 21.6629 26.6973 21.6356 26.7941 21.6059C26.8909 21.5762 26.9869 21.5441 27.0821 21.5096C27.1774 21.4752 27.2717 21.4384 27.3652 21.3993C27.4586 21.3601 27.5511 21.3187 27.6425 21.2749C27.734 21.2312 27.8242 21.1852 27.9135 21.137C28.0026 21.0889 28.0906 21.0384 28.1774 20.9858C28.2641 20.9333 28.3496 20.8786 28.4337 20.8217C28.5178 20.7649 28.6004 20.706 28.6817 20.6451C28.763 20.5842 28.8426 20.5212 28.9208 20.4563C28.999 20.3915 29.0756 20.3247 29.1506 20.2559C29.2255 20.1873 29.2988 20.1168 29.3703 20.0445C29.4418 19.9721 29.5115 19.8981 29.5795 19.8222C29.6474 19.7465 29.7134 19.669 29.7776 19.59C29.8417 19.511 29.904 19.4303 29.9643 19.3482C30.0244 19.266 30.0827 19.1824 30.1389 19.0973C30.195 19.0123 30.2491 18.9259 30.3012 18.8381C30.3532 18.7504 30.403 18.6615 30.4507 18.5713C30.4984 18.4811 30.5439 18.3897 30.587 18.2973C30.6303 18.2048 30.6713 18.1112 30.71 18.0167C30.7487 17.9222 30.7851 17.8269 30.8192 17.7306C30.8532 17.6342 30.885 17.5372 30.9143 17.4393C30.9437 17.3415 30.9707 17.2429 30.9952 17.1436C31.0198 17.0444 31.042 16.9447 31.0617 16.8444C31.0815 16.744 31.0988 16.6433 31.1136 16.542C31.1284 16.4409 31.1409 16.3394 31.1508 16.2376C31.1607 16.1358 31.1681 16.0339 31.1731 15.9317C31.178 15.8295 31.1804 15.7274 31.1804 15.6251C31.1804 15.5227 31.178 15.4205 31.1731 15.3183C31.1681 15.2162 31.1607 15.1142 31.1508 15.0124C31.1409 14.9106 31.1284 14.8091 31.1136 14.708C31.0988 14.6068 31.0815 14.506 31.0617 14.4057C31.042 14.3054 31.0198 14.2057 30.9952 14.1064C30.9707 14.0072 30.9438 13.9086 30.9143 13.8107C30.885 13.7129 30.8532 13.6158 30.8192 13.5195C30.7851 13.4231 30.7487 13.3278 30.71 13.2333C30.6713 13.1387 30.6303 13.0453 30.587 12.9528C30.5439 12.8604 30.4984 12.769 30.4507 12.6787C30.403 12.5886 30.3532 12.4997 30.3012 12.4119C30.2491 12.3242 30.195 12.2378 30.1389 12.1528C30.0827 12.0677 30.0244 11.984 29.9643 11.9019C29.904 11.8197 29.8417 11.7392 29.7776 11.6601C29.7134 11.581 29.6474 11.5036 29.5795 11.4278C29.5115 11.352 29.4418 11.2779 29.3703 11.2056C29.2988 11.1333 29.2255 11.0628 29.1506 10.9941C29.0756 10.9254 28.999 10.8586 28.9208 10.7937C28.8426 10.7288 28.763 10.6659 28.6817 10.605C28.6004 10.5441 28.5178 10.4852 28.4337 10.4283C28.3496 10.3715 28.2641 10.3168 28.1774 10.2642C28.0906 10.2116 28.0026 10.1612 27.9135 10.113C27.8242 10.0648 27.734 10.0188 27.6425 9.97507C27.5511 9.93136 27.4586 9.88992 27.3652 9.85076C27.2717 9.81163 27.1774 9.77483 27.0821 9.74036C26.9869 9.70592 26.8909 9.67385 26.7941 9.64417C26.6973 9.61445 26.5998 9.58717 26.5017 9.56233C26.4035 9.5375 26.3049 9.51509 26.2057 9.49509C26.1065 9.47514 26.0069 9.45766 25.9068 9.44266C25.8067 9.42765 25.7065 9.41513 25.6057 9.40511C25.5051 9.39508 25.4042 9.38756 25.3033 9.38255C25.2022 9.37753 25.1012 9.37503 25 9.37503C24.8988 9.37503 24.7978 9.37753 24.6967 9.38255C24.5958 9.38756 24.4949 9.39508 24.3943 9.40511C24.2935 9.41513 24.1932 9.42765 24.0931 9.44266C23.9931 9.45766 23.8934 9.47514 23.7943 9.49509C23.695 9.51505 23.5964 9.53746 23.4983 9.56233C23.4002 9.58717 23.3027 9.61445 23.2059 9.64417C23.1091 9.67385 23.0131 9.70592 22.9179 9.74036C22.8226 9.77483 22.7283 9.81163 22.6348 9.85076C22.5414 9.88992 22.4489 9.93136 22.3575 9.97507C22.266 10.0188 22.1757 10.0648 22.0865 10.113C21.9974 10.1612 21.9094 10.2116 21.8226 10.2642C21.7359 10.3168 21.6504 10.3715 21.5663 10.4283C21.4822 10.4852 21.3996 10.5441 21.3183 10.605C21.237 10.6659 21.1574 10.7288 21.0791 10.7937C21.001 10.8586 20.9244 10.9254 20.8494 10.9941C20.7745 11.0628 20.7012 11.1333 20.6297 11.2056C20.5582 11.2779 20.4885 11.352 20.4205 11.4278C20.3526 11.5036 20.2866 11.581 20.2224 11.6601C20.1583 11.7392 20.096 11.8197 20.0357 11.9019C19.9756 11.984 19.9173 12.0677 19.8611 12.1528C19.805 12.2378 19.7509 12.3242 19.6988 12.4119C19.6468 12.4997 19.597 12.5886 19.5493 12.6787C19.5016 12.769 19.4561 12.8604 19.4129 12.9528C19.3697 13.0453 19.3287 13.1387 19.29 13.2333C19.2513 13.3278 19.2149 13.4231 19.1808 13.5195C19.1468 13.6158 19.115 13.7129 19.0857 13.8107C19.0562 13.9086 19.0293 14.0072 19.0048 14.1064C18.9802 14.2057 18.958 14.3054 18.9383 14.4057C18.9185 14.506 18.9012 14.6068 18.8864 14.708C18.8716 14.8091 18.8591 14.9106 18.8492 15.0124C18.8393 15.1142 18.8319 15.2162 18.8269 15.3183C18.822 15.4205 18.8196 15.5227 18.8196 15.6251C18.8196 15.7274 18.822 15.8295 18.8269 15.9317C18.8319 16.0339 18.8393 16.1358 18.8492 16.2376C18.8591 16.3394 18.8716 16.4409 18.8864 16.542C18.9012 16.6433 18.9185 16.744 18.9383 16.8444C18.958 16.9447 18.9802 17.0444 19.0048 17.1436C19.0293 17.2429 19.0562 17.3415 19.0857 17.4393C19.115 17.5372 19.1468 17.6342 19.1808 17.7306C19.2149 17.8269 19.2513 17.9222 19.29 18.0167C19.3287 18.1112 19.3697 18.2048 19.4129 18.2973C19.4561 18.3897 19.5016 18.4811 19.5493 18.5713C19.597 18.6615 19.6468 18.7504 19.6988 18.8381C19.7509 18.9259 19.805 19.0123 19.8611 19.0973C19.9173 19.1824 19.9756 19.266 20.0357 19.3482C20.096 19.4303 20.1583 19.511 20.2224 19.59C20.2866 19.669 20.3526 19.7465 20.4205 19.8222C20.4885 19.8981 20.5582 19.9721 20.6297 20.0445C20.7012 20.1168 20.7745 20.1873 20.8494 20.2559C20.9244 20.3247 21.001 20.3915 21.0791 20.4563C21.1574 20.5212 21.237 20.5842 21.3183 20.6451C21.3996 20.706 21.4822 20.7649 21.5663 20.8217C21.6504 20.8786 21.7359 20.9333 21.8226 20.9858C21.9094 21.0384 21.9974 21.0889 22.0865 21.137C22.1757 21.1852 22.266 21.2312 22.3575 21.2749C22.4489 21.3187 22.5414 21.3601 22.6348 21.3993C22.7283 21.4384 22.8226 21.4752 22.9179 21.5096C23.0131 21.5441 23.1091 21.5762 23.2059 21.6059C23.3027 21.6356 23.4002 21.6629 23.4983 21.6877C23.5964 21.7126 23.695 21.7349 23.7943 21.7549C23.8934 21.7748 23.9931 21.7924 24.0932 21.8074C24.1932 21.8224 24.2935 21.835 24.3943 21.845C24.4949 21.855 24.5958 21.8625 24.6967 21.8675ZM24.8484 12.5038C24.8989 12.5013 24.9495 12.5 25 12.5C25.0505 12.5 25.1011 12.5013 25.1516 12.5038C25.2021 12.5063 25.2526 12.51 25.3029 12.515C25.3533 12.5201 25.4034 12.5263 25.4534 12.5339C25.5035 12.5413 25.5533 12.55 25.6028 12.56C25.6524 12.5701 25.7018 12.5812 25.7509 12.5937C25.7999 12.6061 25.8486 12.6197 25.897 12.6346C25.9455 12.6494 25.9935 12.6655 26.041 12.6827C26.0887 12.6999 26.1359 12.7183 26.1826 12.738C26.2292 12.7575 26.2755 12.7782 26.3213 12.8001C26.367 12.8219 26.4121 12.8449 26.4567 12.869C26.5013 12.8932 26.5453 12.9183 26.5888 12.9446C26.632 12.9709 26.6748 12.9983 26.7169 13.0267C26.759 13.0551 26.8002 13.0845 26.8408 13.115C26.8815 13.1455 26.9214 13.1769 26.9604 13.2094C26.9995 13.2418 27.0378 13.2752 27.0753 13.3095C27.1128 13.3439 27.1494 13.3791 27.1852 13.4153C27.2209 13.4515 27.2558 13.4885 27.2897 13.5265C27.3237 13.5643 27.3567 13.603 27.3888 13.6426C27.4208 13.682 27.4519 13.7224 27.4821 13.7635C27.5122 13.8046 27.5414 13.8463 27.5695 13.8888C27.5975 13.9314 27.6245 13.9746 27.6506 14.0184C27.6766 14.0623 27.7015 14.1068 27.7254 14.1519C27.7492 14.1971 27.772 14.2427 27.7935 14.2889C27.8151 14.3352 27.8356 14.382 27.855 14.4291C27.8743 14.4765 27.8926 14.524 27.9096 14.5722C27.9267 14.6204 27.9425 14.6689 27.9572 14.7179C27.9719 14.7668 27.9854 14.8161 27.9976 14.8657C28.0099 14.9153 28.021 14.9652 28.0308 15.0153C28.0407 15.0655 28.0494 15.1159 28.0568 15.1665C28.0642 15.2171 28.0704 15.2678 28.0754 15.3187C28.0803 15.3697 28.084 15.4206 28.0865 15.4717C28.089 15.5228 28.0902 15.5739 28.0902 15.6251C28.0902 15.6762 28.089 15.7273 28.0865 15.7783C28.084 15.8294 28.0803 15.8805 28.0754 15.9314C28.0704 15.9822 28.0642 16.0329 28.0568 16.0836C28.0494 16.1342 28.0407 16.1846 28.0308 16.2347C28.021 16.2849 28.0099 16.3348 27.9976 16.3844C27.9854 16.4339 27.9719 16.4833 27.9572 16.5321C27.9425 16.5811 27.9267 16.6297 27.9096 16.6778C27.8926 16.726 27.8743 16.7737 27.855 16.821C27.8356 16.8681 27.8151 16.9149 27.7935 16.9611C27.772 17.0074 27.7492 17.0531 27.7254 17.0981C27.7015 17.1433 27.6766 17.1877 27.6506 17.2316C27.6245 17.2755 27.5975 17.3187 27.5695 17.3611C27.5414 17.4037 27.5122 17.4455 27.4821 17.4866C27.4519 17.5276 27.4208 17.568 27.3888 17.6075C27.3567 17.647 27.3237 17.6858 27.2897 17.7236C27.2558 17.7615 27.2209 17.7985 27.1852 17.8347C27.1494 17.8709 27.1128 17.9062 27.0753 17.9405C27.0378 17.9748 26.9995 18.0082 26.9604 18.0407C26.9214 18.0732 26.8815 18.1046 26.8408 18.1351C26.8002 18.1656 26.7589 18.195 26.7168 18.2234C26.6747 18.2518 26.632 18.2791 26.5888 18.3054C26.5453 18.3317 26.5013 18.3569 26.4567 18.3811C26.4121 18.4052 26.367 18.4282 26.3212 18.45C26.2755 18.4718 26.2292 18.4925 26.1826 18.5121C26.1359 18.5318 26.0887 18.5501 26.041 18.5674C25.9935 18.5846 25.9455 18.6006 25.897 18.6154C25.8486 18.6303 25.7999 18.6439 25.7509 18.6564C25.7018 18.6688 25.6524 18.68 25.6028 18.69C25.5533 18.7 25.5035 18.7087 25.4534 18.7162C25.4034 18.7238 25.3533 18.7299 25.3029 18.735C25.2526 18.7401 25.2021 18.7438 25.1516 18.7462C25.1011 18.7488 25.0505 18.7501 25 18.7501C24.9495 18.7501 24.8989 18.7488 24.8484 18.7462C24.7979 18.7438 24.7474 18.7401 24.6971 18.735C24.6467 18.7299 24.5966 18.7238 24.5466 18.7162C24.4965 18.7087 24.4467 18.7 24.3972 18.69C24.3475 18.68 24.2982 18.6688 24.2491 18.6564C24.2001 18.6439 24.1514 18.6303 24.103 18.6154C24.0545 18.6006 24.0065 18.5846 23.959 18.5674C23.9113 18.5501 23.8641 18.5318 23.8174 18.5121C23.7707 18.4925 23.7245 18.4718 23.6787 18.45C23.633 18.4282 23.5879 18.4052 23.5433 18.3811C23.4987 18.3569 23.4547 18.3317 23.4112 18.3054C23.3679 18.2791 23.3252 18.2518 23.2831 18.2234C23.241 18.195 23.1998 18.1656 23.1592 18.1351C23.1185 18.1046 23.0786 18.0732 23.0395 18.0407C23.0005 18.0082 22.9622 17.9748 22.9247 17.9405C22.8872 17.9062 22.8506 17.8709 22.8148 17.8347C22.7791 17.7985 22.7442 17.7615 22.7103 17.7236C22.6763 17.6858 22.6433 17.647 22.6111 17.6075C22.5792 17.568 22.5481 17.5276 22.5179 17.4866C22.4878 17.4455 22.4586 17.4037 22.4305 17.3611C22.4025 17.3187 22.3755 17.2755 22.3494 17.2316C22.3234 17.1877 22.2985 17.1433 22.2746 17.0981C22.2508 17.0531 22.228 17.0074 22.2065 16.9611C22.1849 16.9149 22.1644 16.8681 22.145 16.821C22.1257 16.7737 22.1074 16.726 22.0904 16.6778C22.0733 16.6297 22.0575 16.5811 22.0428 16.5321C22.0281 16.4833 22.0146 16.4339 22.0024 16.3844C21.9901 16.3348 21.979 16.2849 21.9692 16.2347C21.9593 16.1846 21.9506 16.1342 21.9432 16.0836C21.9358 16.0329 21.9296 15.9822 21.9246 15.9314C21.9197 15.8805 21.9159 15.8294 21.9135 15.7783C21.911 15.7273 21.9098 15.6762 21.9098 15.6251C21.9098 15.5739 21.911 15.5228 21.9135 15.4717C21.9159 15.4206 21.9197 15.3697 21.9246 15.3187C21.9296 15.2678 21.9358 15.2171 21.9432 15.1665C21.9506 15.1159 21.9593 15.0655 21.9692 15.0153C21.979 14.9652 21.9901 14.9153 22.0024 14.8657C22.0146 14.8161 22.0281 14.7668 22.0428 14.7179C22.0575 14.6689 22.0733 14.6204 22.0904 14.5722C22.1074 14.524 22.1257 14.4765 22.145 14.4291C22.1644 14.382 22.1849 14.3352 22.2065 14.2889C22.228 14.2427 22.2508 14.1971 22.2746 14.1519C22.2985 14.1068 22.3234 14.0623 22.3494 14.0184C22.3755 13.9746 22.4025 13.9314 22.4305 13.8888C22.4586 13.8463 22.4878 13.8046 22.5179 13.7635C22.5481 13.7224 22.5792 13.682 22.6111 13.6426C22.6433 13.603 22.6763 13.5643 22.7103 13.5265C22.7442 13.4885 22.7791 13.4515 22.8148 13.4153C22.8506 13.3791 22.8872 13.3439 22.9247 13.3095C22.9622 13.2752 23.0005 13.2418 23.0395 13.2094C23.0786 13.1769 23.1185 13.1455 23.1592 13.115C23.1998 13.0846 23.2411 13.0551 23.2831 13.0267C23.3252 12.9983 23.3679 12.9709 23.4112 12.9446C23.4547 12.9183 23.4987 12.8932 23.5433 12.869C23.5879 12.8449 23.633 12.8219 23.6787 12.8001C23.7245 12.7782 23.7707 12.7575 23.8174 12.738C23.8641 12.7183 23.9113 12.6999 23.959 12.6827C24.0065 12.6655 24.0545 12.6494 24.103 12.6346C24.1514 12.6197 24.2001 12.6061 24.2491 12.5937C24.2982 12.5812 24.3475 12.5701 24.3972 12.56C24.4467 12.55 24.4965 12.5413 24.5466 12.5339C24.5966 12.5263 24.6467 12.5201 24.6971 12.515C24.7474 12.51 24.7979 12.5063 24.8484 12.5038ZM0 50L50 50L46.3999 28.1251L40.4512 28.1251L40.4512 31.2501L43.7731 31.2501L46.3535 46.875L3.64648 46.875L6.22682 31.2501L9.54883 31.2501L9.54883 28.1251L3.60012 28.1251L0 50Z" fill-rule="evenodd"  fill="#000000" >
</path>
</svg>
