<svg xmlns="http://www.w3.org/2000/svg" xmlns:xlink="http://www.w3.org/1999/xlink" width="28.638671875" height="22.99908447265625" viewBox="0 0 28.638671875 22.99908447265625" fill="none">
<path d="M26.7223 0.308415C26.3403 -0.0904998 25.7073 -0.104245 25.3084 0.277716L21.8091 3.62831C16.8497 0.190418 12.0681 0.121601 7.10161 3.44292C5.46357 4.53729 3.85127 5.97234 2.31202 7.70405C1.92757 8.13204 1.55727 8.57171 1.20112 9.02305C0.844828 9.47444 0.503389 9.93659 0.177024 10.4095C0.170033 10.4203 0.163041 10.4312 0.15633 10.4422C0.149337 10.4532 0.142906 10.4644 0.136474 10.4756C0.130042 10.4869 0.123888 10.4983 0.118016 10.5097C0.112142 10.5212 0.10627 10.5328 0.100956 10.5445C0.0953641 10.5562 0.0900498 10.568 0.0850154 10.5799C0.0799832 10.5917 0.0752288 10.6037 0.0704745 10.6158C0.06572 10.6278 0.0612455 10.64 0.057051 10.6522C0.0528541 10.6644 0.0489395 10.6767 0.0453048 10.689C0.0416679 10.7014 0.0380332 10.7138 0.0346762 10.7263C0.0316014 10.7388 0.0285243 10.7513 0.0254473 10.7639C0.0226524 10.7765 0.0201352 10.7892 0.017898 10.8018C0.0153808 10.8145 0.0134234 10.8273 0.0114662 10.84C0.00950661 10.8528 0.00782924 10.8656 0.0064318 10.8784C0.00503211 10.8913 0.00363468 10.9041 0.00279487 10.917C0.00195731 10.9298 0.00111749 10.9427 0.000837557 10.9556C0.000279938 10.9685 0 10.9814 0 10.9943C0 11.0072 0.000279938 11.0201 0.000837557 11.033C0.00111749 11.0459 0.00195731 11.0588 0.00279487 11.0717C0.00363468 11.0845 0.00503211 11.0974 0.0064318 11.1102C0.00782924 11.123 0.00950661 11.1358 0.0114662 11.1486C0.0134234 11.1614 0.0153808 11.1741 0.017898 11.1868C0.0201352 11.1995 0.0226524 11.2121 0.0254473 11.2247C0.0285243 11.2373 0.0316014 11.2499 0.0346762 11.2624C0.0380332 11.2748 0.0416679 11.2872 0.0453048 11.2996C0.0489395 11.312 0.0528541 11.3243 0.057051 11.3365C0.0612455 11.3487 0.06572 11.3609 0.0704745 11.3729C0.0752288 11.3849 0.0799832 11.3969 0.0850154 11.4088C0.0900498 11.4207 0.0953641 11.4325 0.100956 11.4441C0.10627 11.4558 0.112142 11.4674 0.118016 11.4789C0.123888 11.4904 0.130042 11.5018 0.136474 11.513C0.142906 11.5243 0.149337 11.5354 0.15633 11.5464C0.163041 11.5575 0.170033 11.5684 0.177024 11.5791C0.337119 11.821 2.81972 15.5104 6.59139 18.1992L3.37721 21.2768C2.9783 21.6587 2.96455 22.2917 3.34651 22.6907C3.72847 23.0896 4.3615 23.1033 4.76041 22.7214L8.33022 19.3033C10.1371 20.31 12.1621 21 14.3183 21C14.4439 20.9993 14.5693 20.9965 14.6948 20.9916C14.8203 20.9866 14.9456 20.9795 15.0708 20.9703C15.196 20.961 15.321 20.9496 15.4459 20.936C15.5707 20.9225 15.6952 20.9067 15.8195 20.8889C15.9437 20.871 16.0677 20.851 16.1912 20.8289C16.3148 20.8067 16.438 20.7825 16.5606 20.7561C16.6834 20.7298 16.8056 20.7013 16.9273 20.6707C17.0491 20.6401 17.1702 20.6074 17.2908 20.5726C17.5626 20.4954 17.8312 20.4089 18.097 20.3129C19.9083 19.6642 21.7439 18.5543 23.5538 17.0114C26.5148 14.4918 28.3834 11.6969 28.4608 11.5791C28.4679 11.5684 28.4749 11.5575 28.4816 11.5464C28.4884 11.5354 28.495 11.5243 28.5014 11.513C28.5077 11.5018 28.5138 11.4904 28.5199 11.4789C28.5258 11.4674 28.5315 11.4558 28.537 11.4441C28.5425 11.4325 28.5478 11.4207 28.5529 11.4088C28.558 11.3969 28.5628 11.3849 28.5675 11.3729C28.5721 11.3609 28.5766 11.3487 28.5807 11.3365C28.585 11.3243 28.5889 11.312 28.5927 11.2996C28.5964 11.2872 28.5999 11.2748 28.6032 11.2624C28.6065 11.2499 28.6095 11.2373 28.6123 11.2247C28.6152 11.2121 28.6178 11.1995 28.6201 11.1868C28.6225 11.1741 28.6246 11.1614 28.6265 11.1486C28.6284 11.1358 28.6301 11.123 28.6315 11.1102C28.6329 11.0974 28.6341 11.0845 28.635 11.0717C28.636 11.0588 28.6367 11.0459 28.6372 11.033C28.6376 11.0201 28.6379 11.0072 28.6379 10.9943C28.6379 10.9814 28.6376 10.9685 28.6372 10.9556C28.6367 10.9427 28.636 10.9298 28.635 10.917C28.6341 10.9041 28.6329 10.8913 28.6315 10.8784C28.6301 10.8656 28.6284 10.8528 28.6265 10.84C28.6246 10.8273 28.6225 10.8145 28.6201 10.8018C28.6178 10.7892 28.6152 10.7765 28.6123 10.7639C28.6095 10.7513 28.6065 10.7388 28.6032 10.7263C28.5999 10.7138 28.5963 10.7014 28.5927 10.689C28.5889 10.6767 28.585 10.6644 28.5807 10.6522C28.5766 10.64 28.5721 10.6278 28.5675 10.6158C28.5628 10.6037 28.558 10.5917 28.5529 10.5798C28.5478 10.568 28.5425 10.5562 28.537 10.5445C28.5315 10.5328 28.5258 10.5212 28.5199 10.5097C28.5138 10.4983 28.5077 10.4869 28.5014 10.4756C28.495 10.4644 28.4884 10.4532 28.4816 10.4422C28.4749 10.4312 28.4679 10.4203 28.4608 10.4095C28.4336 10.3684 27.7749 9.37898 26.6322 8.05323C26.6209 8.04001 26.609 8.02706 26.597 8.01436C26.5849 8.00172 26.5726 7.98935 26.5599 7.97727C26.5473 7.96521 26.5342 7.95345 26.521 7.94201C26.5077 7.93058 26.4942 7.91946 26.4804 7.90868C26.4665 7.89789 26.4525 7.88744 26.4381 7.87735C26.4238 7.86726 26.4093 7.85753 26.3945 7.84813C26.3797 7.83876 26.3646 7.82972 26.3494 7.82108C26.3341 7.81242 26.3186 7.80416 26.303 7.79623C26.2873 7.78836 26.2715 7.78085 26.2554 7.7737C26.2394 7.76657 26.2232 7.75984 26.2067 7.75348C26.1904 7.74716 26.1738 7.74121 26.1571 7.73565C26.1406 7.73012 26.1238 7.72498 26.1068 7.72027C26.0899 7.71556 26.0729 7.71126 26.0557 7.70736C26.0385 7.70347 26.0214 7.69998 26.0041 7.69693C25.9868 7.69387 25.9694 7.69125 25.9519 7.68902C25.9345 7.68683 25.917 7.68506 25.8995 7.68367C25.882 7.68235 25.8644 7.6814 25.8468 7.68088C25.8293 7.68038 25.8118 7.68032 25.7941 7.68065C25.7765 7.68102 25.759 7.68179 25.7415 7.68298C25.7239 7.6842 25.7064 7.68584 25.689 7.68788C25.6715 7.68994 25.6541 7.69244 25.6368 7.69532C25.6194 7.69823 25.6023 7.70156 25.585 7.70527C25.5678 7.70905 25.5508 7.7132 25.5339 7.71775C25.5168 7.72233 25.5 7.72731 25.4833 7.7327C25.4666 7.73809 25.4501 7.74389 25.4336 7.75007C25.4171 7.75629 25.4009 7.76288 25.3848 7.76987C25.3687 7.77686 25.3528 7.78423 25.337 7.792C25.3213 7.79975 25.3058 7.8079 25.2904 7.81641C25.2751 7.82496 25.26 7.83382 25.2451 7.84308C25.2301 7.85235 25.2156 7.86193 25.2011 7.87191C25.1867 7.8819 25.1725 7.89221 25.1586 7.90285C25.1447 7.91351 25.1311 7.92451 25.1177 7.93582C25.1043 7.94715 25.0913 7.9588 25.0785 7.97076C25.0657 7.9827 25.0532 7.99495 25.041 8.00751C25.0288 8.0201 25.017 8.03293 25.0055 8.04607C24.9939 8.05922 24.9826 8.07263 24.9718 8.08632C24.9609 8.10003 24.9503 8.11397 24.9402 8.12817C24.93 8.14236 24.9201 8.15681 24.9107 8.17147C24.9012 8.18616 24.8921 8.20105 24.8833 8.21619C24.8746 8.23132 24.8663 8.24662 24.8582 8.26215C24.8503 8.27768 24.8427 8.2934 24.8355 8.30928C24.8283 8.32519 24.8216 8.34128 24.8152 8.35749C24.8087 8.37374 24.8027 8.3901 24.7972 8.40662C24.7915 8.42315 24.7864 8.43978 24.7815 8.45655C24.7768 8.47332 24.7724 8.49021 24.7685 8.50717C24.7646 8.52417 24.7611 8.54125 24.758 8.55841C24.7549 8.57556 24.7522 8.59278 24.7499 8.61005C24.7477 8.62735 24.7459 8.64468 24.7445 8.66203C24.7432 8.67942 24.7423 8.69682 24.7417 8.71423C24.7412 8.73164 24.7411 8.74909 24.7414 8.7665C24.7418 8.78393 24.7426 8.80135 24.7438 8.8187C24.745 8.83611 24.7466 8.85346 24.7486 8.87076C24.7508 8.88806 24.7533 8.9053 24.7561 8.92249C24.7591 8.93969 24.7624 8.95675 24.7662 8.97379C24.7699 8.99083 24.7741 9.00774 24.7787 9.02454C24.7833 9.04137 24.7884 9.05806 24.7937 9.07464C24.7992 9.09121 24.8051 9.10765 24.8113 9.12393C24.8175 9.14024 24.8242 9.15637 24.8313 9.17234C24.8382 9.1883 24.8457 9.20411 24.8535 9.21969C24.8613 9.23529 24.8696 9.25072 24.8781 9.2659C24.8868 9.28112 24.8956 9.29612 24.905 9.31087C24.9144 9.32565 24.9241 9.34017 24.9341 9.35448C24.9442 9.36878 24.9546 9.38284 24.9652 9.39662C24.976 9.41042 24.9871 9.42393 24.9985 9.43718C25.5384 10.0632 25.9622 10.6082 26.2471 10.9943C25.5684 11.907 24.105 13.7366 22.1535 15.3974C20.5426 16.7714 18.9317 17.7509 17.3653 18.313C17.1433 18.391 16.9214 18.4634 16.6979 18.5258C16.5049 18.5815 16.3101 18.6307 16.1135 18.6729C15.917 18.7153 15.7192 18.7509 15.5201 18.7797C15.3212 18.8083 15.1214 18.8302 14.9207 18.8451C14.7202 18.8602 14.5194 18.8682 14.3183 18.8694C12.7932 18.8694 11.3206 18.4279 9.95601 17.7466L11.9922 15.7969C12.6964 16.1339 13.4855 16.3228 14.3184 16.3228C17.2796 16.3228 19.688 13.934 19.688 11C19.688 10.2399 19.5264 9.51645 19.2354 8.86162L26.6916 1.72232C27.0905 1.34036 27.1043 0.707331 26.7223 0.308415ZM18.0767 7.20202L20.2314 5.13891C16.1353 2.43362 12.4186 2.45426 8.30152 5.20725C6.81526 6.20086 5.34187 7.51385 3.9229 9.11071C3.38466 9.71596 2.87347 10.3429 2.38935 10.9915C3.25287 12.1494 5.3822 14.7845 8.16885 16.6888L10.359 14.5917C9.48359 13.6441 8.94877 12.3826 8.94877 11C8.94877 8.06597 11.3572 5.67707 14.3184 5.67707C15.7803 5.67707 17.1075 6.25935 18.0767 7.20202ZM11.9041 13.1123C11.4018 12.5488 11.0966 11.8089 11.0966 11C11.0966 9.23985 12.5413 7.80622 14.3184 7.80622C15.1749 7.80622 15.9542 8.13926 16.5317 8.68136L11.9041 13.1123ZM13.7236 14.1391L17.5038 10.5196C17.5278 10.6763 17.5402 10.8367 17.5402 11C17.5402 12.76 16.0954 14.1936 14.3184 14.1936C14.1153 14.1936 13.9164 14.1749 13.7236 14.1391Z" fill-rule="evenodd"  fill="#000000" >
</path>
</svg>
