<svg xmlns="http://www.w3.org/2000/svg" xmlns:xlink="http://www.w3.org/1999/xlink" width="17.9837646484375" height="13.5361328125" viewBox="0 0 17.9837646484375 13.5361328125" fill="none">
<path d="M17.7641 6.23782L11.7459 0.219674C11.453 -0.0732246 10.9781 -0.0732246 10.6853 0.219674C10.3924 0.512571 10.3924 0.987438 10.6853 1.28034L15.4501 6.04519L0.722953 6.04519C0.323672 6.04519 0 6.36888 0 6.76814C0 7.16742 0.323695 7.49109 0.722953 7.49109L15.4501 7.49109L10.6853 12.256C10.3924 12.5488 10.3924 13.0237 10.6853 13.3166C10.8317 13.4631 11.0237 13.5363 11.2156 13.5363C11.4075 13.5363 11.5995 13.4631 11.7459 13.3166L17.7641 7.29846C17.7728 7.28979 17.7812 7.28091 17.7895 7.27181C17.7977 7.26269 17.8057 7.25339 17.8135 7.24392C17.8213 7.23443 17.8288 7.22475 17.8361 7.21491C17.8435 7.20504 17.8505 7.19501 17.8574 7.18481C17.8642 7.17459 17.8707 7.16423 17.877 7.15371C17.8834 7.14316 17.8894 7.1325 17.8952 7.12167C17.901 7.11084 17.9065 7.0999 17.9117 7.08881C17.917 7.0777 17.922 7.06648 17.9267 7.05516C17.9314 7.04381 17.9358 7.03235 17.9399 7.0208C17.9441 7.00924 17.9479 6.99759 17.9515 6.98585C17.955 6.97409 17.9583 6.96227 17.9613 6.95037C17.9643 6.93846 17.967 6.92648 17.9693 6.91446C17.9717 6.90241 17.9738 6.89032 17.9756 6.87818C17.9774 6.86604 17.979 6.85385 17.9801 6.84164C17.9813 6.82943 17.9823 6.81719 17.9828 6.80494C17.9835 6.79268 17.9838 6.78042 17.9838 6.76814C17.9838 6.75586 17.9835 6.74358 17.9828 6.73134C17.9823 6.71906 17.9813 6.70683 17.9801 6.69462C17.9789 6.68241 17.9774 6.67024 17.9756 6.6581C17.9738 6.64596 17.9717 6.63387 17.9693 6.62182C17.967 6.60977 17.9643 6.59782 17.9613 6.58591C17.9583 6.57401 17.955 6.56217 17.9515 6.55043C17.9479 6.53866 17.9441 6.52702 17.9399 6.51548C17.9358 6.50391 17.9314 6.49247 17.9267 6.48112C17.922 6.46978 17.917 6.45858 17.9117 6.44747C17.9065 6.43636 17.901 6.42541 17.8952 6.41459C17.8894 6.40376 17.8834 6.39309 17.877 6.38257C17.8707 6.37202 17.8642 6.36166 17.8574 6.35147C17.8505 6.34125 17.8435 6.33122 17.8361 6.32137C17.8288 6.31151 17.8213 6.30183 17.8135 6.29236C17.8057 6.28287 17.7977 6.27356 17.7895 6.26447C17.7812 6.25537 17.7728 6.24649 17.7641 6.23782Z"   fill="#000000" >
</path>
</svg>
