<svg xmlns="http://www.w3.org/2000/svg" width="50" height="39.286" viewBox="0 0 50 39.286" fill="none"><path d="M44.643 0H5.357C2.5 0 0 2.5 0 5.357V33.93c0 2.857 2.5 5.357 5.357 5.357h39.286c2.857 0 5.357-2.5 5.357-5.357V5.357C50 2.5 47.5 0 44.643 0zM5.357 3.571h39.286L27.5 20.714c-.714.715-1.429 1.072-2.5 1.072s-1.786-.357-2.5-1.072L5.357 3.571zM3.571 34.643V6.786L17.5 20.714 3.571 34.643zM7.5 35.714l12.5-12.5c1.429 1.429 3.214 2.143 5 2.143s3.571-.714 5-2.143l2.143-2.143L30 23.214l12.5 12.5h-35zm38.929-1.785v.714L32.5 20.714 46.429 6.786v27.143z" fill="#000"/></svg>