<svg xmlns="http://www.w3.org/2000/svg" fill="none" viewBox="0 0 37 31">
  <path fill="currentColor" d="M33.77 13.24c-.92 1.58-2.37 2.74-3.62 4-2.35 2.35-4.71 4.69-7.06 7.04-.65.65-3.98 4.36-4.57 4.29-.59.05-1.37-1.14-1.78-1.55l-4.75-4.71c-1.94-1.93-3.88-3.86-5.82-5.78-1.12-1.13-2.47-2.19-3.15-3.76-1.2-2.78-.32-6.23 1.25-7.93.89-.96 2.14-1.8 3.56-2.21.51-.08 1.03-.16 1.54-.24 2.97.01 3.64 1.09 5.46 1.97l3.68 3.7c1.9-1.46 3.19-3.75 5.4-4.89 4.85-2.48 9.62 1.02 10.57 5.07.41 1.76-.06 3.88-.71 5.01zM26.11.12c-1.74.3-3.18.85-4.39 1.67l-1.25 1.01-1.96 1.97C15.72 2.62 14.52-.02 9.31.06l-2.2.36c-1.87.57-3.66 1.66-4.75 3.04-.64.81-1.26 1.78-1.66 2.8-2.37 6.03 1.73 9.79 4.51 12.58l4.87 4.83 6 5.96c.72.59 1.27 1.59 2.85 1.31 1.89-.34 3.87-3.12 5.1-4.35 2.35-2.35 4.71-4.69 7.06-7.04 2.18-2.19 4.63-4.02 5.58-7.45C38.47 5.59 32.46-.99 26.11.12z"/>
</svg> 