<svg xmlns="http://www.w3.org/2000/svg" xmlns:xlink="http://www.w3.org/1999/xlink" width="12" height="13.395599365234375" viewBox="0 0 12 13.395599365234375" fill="none">
<path d="M12 12.8387C12 13.1412 11.7573 13.3864 11.4578 13.3864C11.1583 13.3864 10.9156 13.1412 10.9156 12.8387L10.9109 12.7875C10.9109 12.7659 10.9148 12.7451 10.9169 12.7238C10.5784 10.3193 8.538 8.55233 6.0533 8.52461C6.03337 8.52503 6.01429 8.52764 5.99436 8.52764C5.97443 8.52764 5.95534 8.52505 5.93585 8.52461C3.47976 8.55234 1.45882 10.2799 1.0861 12.6428C1.09824 12.6892 1.10732 12.7373 1.10732 12.7875L1.11253 12.8391C1.11253 13.1464 0.865924 13.3956 0.561685 13.3956C0.257856 13.3956 0.0108299 13.1464 0.0108299 12.8391L0.0104019 12.8339L0 12.8339C0.00129888 12.8179 0.00476617 12.8023 0.0064932 12.7862C0.0064932 12.7403 0.0134265 12.697 0.0238283 12.654C0.305954 10.4376 1.77648 8.64507 3.7775 7.87319C2.6125 7.11908 1.85277 5.78636 1.85277 4.26381C1.85277 1.90914 3.66395 0 5.99479 0C8.3252 0 10.1364 1.90914 10.1364 4.26381C10.1364 5.78592 9.3775 7.11821 8.21294 7.87231C10.2001 8.63814 11.6637 10.4099 11.9619 12.6042C11.9822 12.6619 11.9957 12.723 11.9957 12.7875L12 12.8387ZM9.18419 4.26512C9.18419 2.48471 7.75569 1.04148 5.99348 1.04148C4.23127 1.04148 2.80278 2.48514 2.80278 4.26512C2.80278 6.04555 4.23127 7.48877 5.99348 7.48877C7.75525 7.48877 9.18419 6.04555 9.18419 4.26512Z"   fill="#000000" >
</path>
</svg>
