<svg xmlns="http://www.w3.org/2000/svg" xmlns:xlink="http://www.w3.org/1999/xlink" width="25" height="25" viewBox="0 0 25 25" fill="none">
<path d="M23.2598 12.0142C23.2256 11.9702 23.1841 11.9312 23.1426 11.8945L18.7725 7.52686C18.4673 7.22168 17.9692 7.22168 17.6641 7.52686C17.3589 7.83203 17.3589 8.33008 17.6641 8.63525L20.7402 11.7114L10.2861 11.7114L10.2837 11.7114C9.83936 11.7114 9.48047 12.0728 9.48047 12.5171C9.48047 12.9614 9.83936 13.3228 10.2837 13.3228C10.291 13.3252 10.2959 13.3228 10.3008 13.3228L20.7451 13.3228L17.6689 16.3989C17.3687 16.6992 17.3687 17.1899 17.6689 17.4902L17.686 17.5073C17.9863 17.8076 18.477 17.8076 18.7773 17.5073L23.2207 13.064C23.5063 12.7783 23.521 12.3169 23.2598 12.0142Z"   fill="#808080" >
</path>
<path d="M13.7266 19.5068C13.2871 19.5068 12.9282 19.8657 12.9282 20.3052L12.9282 21.8628L3.15283 21.8628L3.15283 3.14209L12.9282 3.14209L12.9282 4.68262C12.9282 5.12207 13.2871 5.48096 13.7266 5.48096C14.166 5.48096 14.5249 5.12207 14.5249 4.68262L14.5249 2.35107C14.5249 2.26562 14.5102 2.18506 14.4858 2.10693C14.3833 1.78223 14.0806 1.54541 13.7241 1.54541L2.35693 1.54541C1.91748 1.54541 1.55859 1.9043 1.55859 2.34375L1.55859 22.6538C1.55859 23.0005 1.7832 23.2959 2.09082 23.4058C2.17871 23.4399 2.27393 23.457 2.37158 23.457L13.6802 23.457C13.6948 23.457 13.7119 23.4595 13.7266 23.4595C14.166 23.4595 14.5249 23.1006 14.5249 22.6611L14.5249 20.3052C14.5249 19.8657 14.166 19.5068 13.7266 19.5068Z"   fill="#808080" >
</path>
<path d="M6.26953 12.5171C6.26952 12.5303 6.26983 12.5435 6.27046 12.5566C6.2711 12.5698 6.27205 12.583 6.27334 12.5961C6.27461 12.6092 6.27621 12.6223 6.27813 12.6354C6.28005 12.6484 6.28228 12.6614 6.28484 12.6744C6.2874 12.6873 6.29026 12.7002 6.29343 12.713C6.29662 12.7258 6.30012 12.7385 6.30393 12.7511C6.30774 12.7638 6.31186 12.7763 6.31629 12.7887C6.3207 12.8011 6.32542 12.8134 6.33045 12.8256C6.33547 12.8378 6.3408 12.8499 6.34641 12.8618C6.35203 12.8738 6.35793 12.8855 6.36411 12.8972C6.37031 12.9088 6.37679 12.9203 6.38355 12.9316C6.3903 12.9429 6.39732 12.9541 6.40462 12.9651C6.41192 12.976 6.41949 12.9868 6.42732 12.9974C6.43515 13.008 6.44324 13.0184 6.45159 13.0286C6.45992 13.0388 6.4685 13.0488 6.47732 13.0586C6.48616 13.0684 6.49522 13.0779 6.50452 13.0873C6.51381 13.0966 6.52333 13.1057 6.53308 13.1146C6.54281 13.1234 6.55277 13.1321 6.56294 13.1404C6.5731 13.1488 6.58346 13.1569 6.59402 13.1648C6.60458 13.1727 6.61533 13.1803 6.62627 13.1876C6.63721 13.1949 6.64832 13.202 6.6596 13.2088C6.67088 13.2156 6.68231 13.2221 6.6939 13.2283C6.7055 13.2345 6.71725 13.2404 6.72913 13.2461C6.74103 13.2517 6.75304 13.2571 6.76519 13.2621C6.77734 13.2672 6.78962 13.2719 6.802 13.2764C6.81439 13.2808 6.82687 13.285 6.83946 13.2888C6.85204 13.2926 6.86471 13.2961 6.87747 13.2994C6.89023 13.3026 6.90306 13.3054 6.91597 13.308C6.92886 13.3106 6.94181 13.3129 6.95483 13.3148C6.96784 13.3167 6.98089 13.3184 6.99397 13.3196C7.00707 13.3209 7.02019 13.3219 7.03333 13.3226C7.04646 13.3232 7.0596 13.3235 7.07276 13.3235C7.08591 13.3235 7.09905 13.3232 7.11218 13.3226C7.12532 13.3219 7.13844 13.3209 7.15154 13.3196C7.16463 13.3184 7.17767 13.3167 7.19067 13.3148C7.2037 13.3129 7.21665 13.3106 7.22954 13.308C7.24245 13.3054 7.25528 13.3026 7.26804 13.2994C7.2808 13.2961 7.29347 13.2926 7.30606 13.2888C7.31864 13.285 7.33112 13.2808 7.34351 13.2764C7.35589 13.2719 7.36816 13.2672 7.38032 13.2621C7.39247 13.2571 7.40448 13.2517 7.41638 13.2461C7.42826 13.2404 7.44001 13.2345 7.45161 13.2283C7.4632 13.2221 7.47464 13.2156 7.48594 13.2088C7.49722 13.202 7.50832 13.1949 7.51924 13.1876C7.53018 13.1803 7.54093 13.1727 7.55149 13.1648C7.56205 13.1569 7.57241 13.1488 7.58257 13.1404C7.59274 13.1321 7.60269 13.1234 7.61243 13.1146C7.62218 13.1057 7.6317 13.0966 7.64099 13.0873C7.65029 13.0779 7.65935 13.0684 7.66819 13.0586C7.67701 13.0488 7.6856 13.0388 7.69395 13.0286C7.70228 13.0184 7.71036 13.008 7.71819 12.9974C7.72602 12.9868 7.73359 12.976 7.74089 12.9651C7.74819 12.9541 7.75521 12.9429 7.76196 12.9316C7.76872 12.9203 7.7752 12.9088 7.7814 12.8972C7.78758 12.8855 7.79348 12.8738 7.7991 12.8618C7.80471 12.8499 7.81003 12.8378 7.81507 12.8256C7.82009 12.8134 7.82481 12.8011 7.82922 12.7887C7.83365 12.7763 7.83777 12.7638 7.84158 12.7511C7.84539 12.7385 7.84889 12.7258 7.85208 12.713C7.85525 12.7002 7.85812 12.6873 7.86067 12.6744C7.86322 12.6614 7.86546 12.6484 7.86738 12.6354C7.8693 12.6223 7.87091 12.6092 7.87219 12.5961C7.87346 12.583 7.87442 12.5698 7.87505 12.5566C7.87569 12.5435 7.87599 12.5303 7.87598 12.5171C7.87599 12.5039 7.87569 12.4907 7.87505 12.4775C7.87442 12.4643 7.87346 12.4512 7.87219 12.438C7.87091 12.4249 7.8693 12.4118 7.86738 12.3988C7.86546 12.3857 7.86322 12.3727 7.86067 12.3598C7.85812 12.3468 7.85525 12.334 7.85208 12.3212C7.84889 12.3084 7.84539 12.2957 7.84158 12.283C7.83777 12.2704 7.83365 12.2579 7.82922 12.2454C7.82481 12.233 7.82009 12.2207 7.81507 12.2085C7.81003 12.1963 7.80471 12.1843 7.7991 12.1724C7.79348 12.1604 7.78758 12.1486 7.7814 12.137C7.7752 12.1253 7.76872 12.1139 7.76196 12.1026C7.75521 12.0912 7.74818 12.0801 7.74087 12.0691C7.73358 12.0581 7.72602 12.0473 7.71819 12.0367C7.71036 12.0261 7.70228 12.0157 7.69395 12.0055C7.6856 11.9953 7.67701 11.9853 7.66819 11.9755C7.65935 11.9658 7.65029 11.9562 7.64099 11.9469C7.6317 11.9375 7.62218 11.9284 7.61243 11.9196C7.60269 11.9107 7.59274 11.9021 7.58257 11.8937C7.57241 11.8854 7.56205 11.8772 7.55149 11.8694C7.54093 11.8615 7.53018 11.8539 7.51924 11.8466C7.50832 11.8392 7.49722 11.8322 7.48594 11.8254C7.47464 11.8186 7.4632 11.8121 7.45161 11.8059C7.44001 11.7997 7.42826 11.7937 7.41638 11.7881C7.40448 11.7824 7.39247 11.7771 7.38032 11.772C7.36816 11.767 7.35589 11.7622 7.34351 11.7578C7.33112 11.7533 7.31864 11.7492 7.30606 11.7454C7.29347 11.7415 7.2808 11.738 7.26804 11.7348C7.25528 11.7316 7.24245 11.7287 7.22954 11.7261C7.21665 11.7236 7.2037 11.7213 7.19067 11.7194C7.17767 11.7174 7.16463 11.7158 7.15154 11.7145C7.13844 11.7132 7.12532 11.7122 7.11218 11.7116C7.09905 11.711 7.08591 11.7106 7.07276 11.7106C7.0596 11.7106 7.04646 11.711 7.03333 11.7116C7.02019 11.7122 7.00707 11.7132 6.99397 11.7145C6.98089 11.7158 6.96784 11.7174 6.95483 11.7194C6.94181 11.7213 6.92886 11.7236 6.91597 11.7261C6.90306 11.7287 6.89023 11.7316 6.87747 11.7348C6.86471 11.738 6.85204 11.7415 6.83946 11.7454C6.82687 11.7492 6.81439 11.7533 6.802 11.7578C6.78962 11.7622 6.77734 11.767 6.76519 11.772C6.75304 11.7771 6.74103 11.7824 6.72913 11.7881C6.71725 11.7937 6.7055 11.7997 6.6939 11.8059C6.68231 11.8121 6.67088 11.8186 6.6596 11.8254C6.64832 11.8322 6.63721 11.8392 6.62627 11.8466C6.61533 11.8539 6.60458 11.8615 6.59402 11.8694C6.58346 11.8772 6.5731 11.8853 6.56294 11.8937C6.55277 11.9021 6.54281 11.9107 6.53308 11.9196C6.52333 11.9284 6.51381 11.9375 6.50452 11.9469C6.49522 11.9562 6.48616 11.9658 6.47732 11.9755C6.4685 11.9853 6.45992 11.9953 6.45159 12.0055C6.44324 12.0157 6.43515 12.0261 6.42732 12.0367C6.41949 12.0473 6.41192 12.0581 6.40462 12.0691C6.39732 12.0801 6.3903 12.0912 6.38355 12.1026C6.37679 12.1139 6.37031 12.1253 6.36411 12.137C6.35793 12.1486 6.35203 12.1604 6.34641 12.1724C6.3408 12.1843 6.33547 12.1963 6.33045 12.2085C6.32542 12.2207 6.3207 12.233 6.31629 12.2454C6.31186 12.2579 6.30774 12.2704 6.30393 12.283C6.30012 12.2956 6.29662 12.3084 6.29343 12.3212C6.29026 12.334 6.2874 12.3468 6.28484 12.3598C6.28228 12.3727 6.28005 12.3857 6.27813 12.3988C6.27621 12.4118 6.27461 12.4249 6.27334 12.438C6.27205 12.4512 6.2711 12.4643 6.27046 12.4775C6.26983 12.4907 6.26952 12.5039 6.26953 12.5171Z"   fill="#808080" >
</path>
</svg>
