<svg xmlns="http://www.w3.org/2000/svg" width="50" height="52.679" viewBox="0 0 50 52.679" fill="none"><path d="M24.284.178a1.582 1.582 0 0 1 .53-.167 1.532 1.532 0 0 1 .902.167l23.382 12.317.033.018.006.003.013.007.003.002.006.003.006.004.011.006a1.636 1.636 0 0 1 .75.961c.018.062.033.124.045.187v.003l.011.068v.002c.005.035.01.07.012.107l.003.035c.002.037.003.074.003.112V38.691v-.025a1.734 1.734 0 0 1-.485 1.21l-.004.003a.79.79 0 0 1-.068.066l-.003.003-.06.05-.005.005c-.09.073-.187.136-.29.187L25.743 52.486a1.574 1.574 0 0 1-.49.172c-.057.01-.114.015-.172.018h-.005l-.02.002h-.069H25c-.269 0-.523-.07-.745-.193L.885 40.175a1.569 1.569 0 0 1-.48-.389 1.578 1.578 0 0 1-.194-.284A1.738 1.738 0 0 1 0 38.665V14.014c0-.192.03-.374.083-.542.12-.379.37-.72.748-.937l.016-.009.038-.02-.032.017c.016-.01.033-.018.05-.027L24.283.178zM3.202 16.742v20.881l20.197 10.64V27.382L3.202 16.742zm43.596 0L38.09 21.33a1.575 1.575 0 0 1-.128.068L26.6 27.382v20.88l20.197-10.639v-20.88zm-32.54-7.51L5.18 14.013 25 24.453l8.772-4.62L14.257 9.231zM25 3.572l-7.195 3.791 19.514 10.6 7.5-3.95L25 3.573z" fill="#000"/></svg>