<svg xmlns="http://www.w3.org/2000/svg" width="29.797" height="29.936" viewBox="0 0 29.797 29.936" fill="none"><path d="M23.637 24.978l.02-.017 4.527 4.689a.837.837 0 0 0 .178.144.975.975 0 0 0 .434.14.888.888 0 0 0 .23-.013.88.88 0 0 0 .219-.068.787.787 0 0 0 .121-.066 1.27 1.27 0 0 0 .11-.083 1.115 1.115 0 0 0 .126-.134.844.844 0 0 0 .117-.198.938.938 0 0 0 .029-.674.931.931 0 0 0-.214-.352l-4.552-4.713a15.02 15.02 0 0 0 .567-.692 14.189 14.189 0 0 0 2.036-3.653 14.133 14.133 0 0 0 .726-2.698 14.173 14.173 0 0 0 .147-3.486 14.233 14.233 0 0 0-2.219-6.561 14.132 14.132 0 0 0-1.734-2.19 14.197 14.197 0 0 0-3.316-2.55 14.21 14.21 0 0 0-4.6-1.61 14.252 14.252 0 1 0 7.048 24.785zm-.786-1.823a12.292 12.292 0 0 0 1.933-2.354 12.435 12.435 0 0 0 1.476-3.34 12.291 12.291 0 0 0 .44-3.013 12.43 12.43 0 0 0-.461-3.622 12.36 12.36 0 0 0-3.446-5.67 12.378 12.378 0 0 0-17.138.194A12.405 12.405 0 0 0 2.97 9.316a12.415 12.415 0 0 0-.977 4.688 12.366 12.366 0 0 0 2.679 7.827 12.38 12.38 0 0 0 14.677 3.64 12.294 12.294 0 0 0 2.584-1.535 12.336 12.336 0 0 0 .916-.781h.002zm-7.335-3.724a1.009 1.009 0 0 1-.028.228.828.828 0 0 1-.062.173.986.986 0 0 1-.185.262.992.992 0 0 1-.221.164.986.986 0 0 1-.304.1.978.978 0 0 1-.366-.018.828.828 0 0 1-.173-.062.986.986 0 0 1-.262-.184.83.83 0 0 1-.116-.142.976.976 0 0 1-.13-.293 1.002 1.002 0 0 1-.028-.228v-4.185H9.456a1.008 1.008 0 0 1-.228-.028.857.857 0 0 1-.214-.083.875.875 0 0 1-.187-.132.881.881 0 0 1-.175-.213.917.917 0 0 1-.132-.436.926.926 0 0 1 .183-.604.983.983 0 0 1 .232-.221.965.965 0 0 1 .384-.148 1 1 0 0 1 .137-.01h4.185V9.186a1.008 1.008 0 0 1 .028-.228.857.857 0 0 1 .082-.214.875.875 0 0 1 .133-.188.881.881 0 0 1 .212-.174.917.917 0 0 1 .436-.132.926.926 0 0 1 .605.183.983.983 0 0 1 .22.232.965.965 0 0 1 .149.383 1 1 0 0 1 .01.138v4.185H19.7a1.009 1.009 0 0 1 .228.028.828.828 0 0 1 .173.062.986.986 0 0 1 .262.184.83.83 0 0 1 .117.143.976.976 0 0 1 .13.293 1.002 1.002 0 0 1 .026.273 1.012 1.012 0 0 1-.053.27.93.93 0 0 1-.524.55.93.93 0 0 1-.359.072h-4.185v4.185z" fill-rule="evenodd" fill="#FFF"/></svg>