<svg xmlns="http://www.w3.org/2000/svg" xmlns:xlink="http://www.w3.org/1999/xlink" width="26.25" height="20" viewBox="0 0 26.25 20" fill="none">
<path d="M24.375 2.41383e-11L1.875 2.41383e-11C1.84432 -1.55633e-07 1.81365 0.000752507 1.78299 0.00225799C1.75235 0.00376349 1.72176 0.00602194 1.69123 0.0090329C1.66069 0.0120438 1.63024 0.0157975 1.59989 0.020294C1.56953 0.0247904 1.53931 0.0300394 1.50921 0.0360412C1.4791 0.0420227 1.44916 0.0487366 1.4194 0.0561825C1.38964 0.0636493 1.36007 0.0718381 1.33072 0.0807495C1.30136 0.0896403 1.27223 0.0992633 1.24332 0.109619C1.21443 0.119954 1.18581 0.130991 1.15747 0.14273C1.12911 0.15447 1.10107 0.1669 1.07333 0.180022C1.0456 0.193145 1.0182 0.206939 0.99112 0.221405C0.96406 0.23587 0.937378 0.250986 0.911071 0.266754C0.884744 0.282541 0.858826 0.29895 0.833313 0.315979C0.8078 0.333029 0.782715 0.350699 0.758056 0.368988C0.73342 0.387259 0.709238 0.406128 0.685516 0.425599C0.661795 0.445069 0.638559 0.465109 0.615814 0.485718C0.593087 0.506326 0.570877 0.527475 0.549176 0.549164C0.527478 0.570871 0.506326 0.593087 0.485718 0.615814C0.465109 0.638559 0.445071 0.661795 0.425604 0.685516C0.406137 0.709238 0.387265 0.73342 0.368985 0.758056C0.350708 0.782715 0.333045 0.8078 0.315994 0.833313C0.298948 0.858826 0.282535 0.884744 0.266757 0.911071C0.250981 0.937378 0.235862 0.96406 0.221399 0.991119C0.206934 1.0182 0.19314 1.0456 0.18002 1.07333C0.1669 1.10107 0.154467 1.12911 0.142725 1.15747C0.130984 1.18581 0.119943 1.21443 0.109604 1.24332C0.0992666 1.27223 0.0896445 1.30136 0.0807372 1.33072C0.0718305 1.36007 0.0636484 1.38964 0.056192 1.4194C0.0487356 1.44916 0.0420145 1.4791 0.036029 1.50921C0.0300418 1.53931 0.0247968 1.56953 0.0202943 1.59989C0.015792 1.63024 0.0120371 1.66069 0.00903009 1.69123C0.00602124 1.72176 0.00376395 1.75235 0.00225846 1.78299C0.00075274 1.81365 6.1094e-12 1.84432 6.1094e-12 1.875L6.1094e-12 18.125C-7.83075e-08 18.1557 0.000752743 18.1863 0.00225846 18.217C0.00376395 18.2476 0.00602124 18.2782 0.00903009 18.3088C0.0120371 18.3394 0.015792 18.3697 0.0202943 18.4001C0.0247968 18.4305 0.0300405 18.4608 0.036026 18.4907C0.0420135 18.5209 0.0487356 18.5509 0.056192 18.5806C0.0636484 18.6104 0.0718305 18.6399 0.0807372 18.6693C0.0896445 18.6986 0.0992666 18.7278 0.109604 18.7566C0.119943 18.7855 0.130984 18.8141 0.142725 18.8425C0.154467 18.8709 0.1669 18.8989 0.18002 18.9266C0.19314 18.9544 0.206934 18.9818 0.221399 19.0089C0.235862 19.036 0.250981 19.0626 0.266757 19.0889C0.282535 19.1152 0.298948 19.1411 0.315994 19.1666C0.333045 19.1922 0.350708 19.2173 0.368985 19.242C0.387265 19.2666 0.406137 19.2908 0.425604 19.3145C0.445071 19.3382 0.465109 19.3615 0.485718 19.3841C0.506326 19.4069 0.527478 19.4291 0.549176 19.4509C0.570877 19.4725 0.593087 19.4936 0.615814 19.5142C0.638559 19.5349 0.661795 19.5549 0.685516 19.5744C0.709238 19.5939 0.73342 19.6127 0.758056 19.631C0.782715 19.6493 0.8078 19.6669 0.833313 19.684C0.858826 19.701 0.884744 19.7175 0.911071 19.7332C0.937378 19.749 0.96406 19.7641 0.99112 19.7786C1.0182 19.793 1.0456 19.8069 1.07333 19.82C1.10107 19.8331 1.12911 19.8455 1.15747 19.8573C1.18581 19.869 1.21443 19.88 1.24332 19.8904C1.27223 19.9007 1.30136 19.9104 1.33072 19.9193C1.36007 19.9281 1.38964 19.9364 1.4194 19.9439C1.44916 19.9513 1.4791 19.958 1.50921 19.964C1.53931 19.97 1.56953 19.9753 1.59989 19.9797C1.63024 19.9842 1.66069 19.988 1.69123 19.991C1.72176 19.994 1.75235 19.9963 1.78299 19.9977C1.81365 19.9993 1.84432 20 1.875 20L24.375 20C24.4056 20 24.4364 19.9993 24.467 19.9977C24.4976 19.9963 24.5282 19.994 24.5588 19.991C24.5894 19.988 24.6197 19.9842 24.6501 19.9797C24.6805 19.9753 24.7108 19.97 24.7407 19.964C24.7709 19.958 24.8009 19.9513 24.8306 19.9439C24.8604 19.9364 24.8899 19.9281 24.9193 19.9193C24.9486 19.9104 24.9778 19.9007 25.0066 19.8904C25.0355 19.88 25.0641 19.869 25.0925 19.8573C25.1209 19.8455 25.1489 19.8331 25.1766 19.82C25.2044 19.8069 25.2318 19.793 25.2589 19.7786C25.286 19.7641 25.3126 19.749 25.3389 19.7332C25.3652 19.7175 25.3911 19.701 25.4167 19.684C25.4422 19.6669 25.4673 19.6493 25.492 19.631C25.5166 19.6127 25.5408 19.5939 25.5645 19.5744C25.5882 19.5549 25.6115 19.5349 25.6341 19.5142C25.6569 19.4936 25.6791 19.4725 25.7009 19.4509C25.7225 19.4291 25.7436 19.4069 25.7642 19.3841C25.7849 19.3614 25.8049 19.3382 25.8244 19.3145C25.8439 19.2908 25.8627 19.2666 25.881 19.242C25.8993 19.2173 25.9169 19.1922 25.934 19.1666C25.951 19.1411 25.9675 19.1152 25.9832 19.0889C25.999 19.0626 26.0141 19.036 26.0286 19.0089C26.043 18.9818 26.0569 18.9544 26.07 18.9266C26.0831 18.8989 26.0955 18.8709 26.1073 18.8425C26.119 18.8141 26.13 18.7855 26.1404 18.7566C26.1507 18.7278 26.1604 18.6986 26.1693 18.6693C26.1781 18.6399 26.1864 18.6104 26.1939 18.5806C26.2013 18.5509 26.208 18.5209 26.214 18.4907C26.22 18.4608 26.2253 18.4305 26.2297 18.4001C26.2342 18.3697 26.238 18.3394 26.241 18.3088C26.244 18.2782 26.2463 18.2476 26.2477 18.217C26.2493 18.1864 26.25 18.1556 26.25 18.125L26.25 1.875C26.25 1.84432 26.2493 1.81365 26.2477 1.78299C26.2463 1.75235 26.244 1.72176 26.241 1.69123C26.238 1.66069 26.2342 1.63024 26.2297 1.59989C26.2253 1.56953 26.22 1.53931 26.214 1.50921C26.208 1.4791 26.2013 1.44917 26.1939 1.4194C26.1864 1.38964 26.1781 1.36007 26.1693 1.33072C26.1604 1.30136 26.1507 1.27223 26.1404 1.24332C26.13 1.21443 26.119 1.18581 26.1073 1.15747C26.0955 1.12911 26.0831 1.10107 26.07 1.07333C26.0569 1.0456 26.043 1.0182 26.0286 0.991119C26.0141 0.96406 25.999 0.937378 25.9832 0.911071C25.9675 0.884744 25.951 0.858826 25.934 0.833313C25.9169 0.8078 25.8993 0.782715 25.881 0.758056C25.8627 0.73342 25.8439 0.709238 25.8244 0.685516C25.8049 0.661795 25.7849 0.638559 25.7642 0.615814C25.7436 0.593087 25.7225 0.570871 25.7009 0.549164C25.6791 0.527475 25.6569 0.506326 25.6341 0.485718C25.6115 0.465109 25.5882 0.445069 25.5645 0.425599C25.5408 0.406128 25.5166 0.387259 25.492 0.368988C25.4673 0.350699 25.4422 0.333039 25.4167 0.31601C25.3911 0.29896 25.3652 0.282541 25.3389 0.266754C25.3126 0.250986 25.286 0.23587 25.2589 0.221405C25.2318 0.20694 25.2044 0.193145 25.1766 0.180022C25.1489 0.1669 25.1209 0.15447 25.0925 0.14273C25.0641 0.130991 25.0355 0.119954 25.0066 0.109619C24.9778 0.0992633 24.9486 0.0896403 24.9193 0.0807495C24.8899 0.0718381 24.8604 0.0636493 24.8306 0.0561825C24.8009 0.0487366 24.7709 0.0420227 24.7407 0.0360412C24.7108 0.0300394 24.6805 0.0247904 24.6501 0.020294C24.6197 0.0157975 24.5894 0.0120438 24.5588 0.0090329C24.5282 0.00602194 24.4976 0.00376349 24.467 0.00225799C24.4364 0.000752509 24.4056 2.41383e-11 24.375 2.41383e-11ZM3.09433 2.50076C3.10455 2.50025 3.11477 2.5 3.125 2.5L23.125 2.5C23.1353 2.5 23.1455 2.50025 23.1556 2.50076C23.1659 2.50125 23.1761 2.502 23.1863 2.50303C23.1965 2.50402 23.2066 2.50528 23.2167 2.50677C23.2268 2.50826 23.2369 2.51 23.2469 2.51199C23.257 2.51401 23.267 2.51626 23.2769 2.51874C23.2868 2.52121 23.2966 2.52395 23.3064 2.52691C23.3162 2.52989 23.3259 2.53309 23.3355 2.53653C23.3451 2.53999 23.3547 2.54367 23.3641 2.54757C23.3736 2.55149 23.383 2.55562 23.3923 2.56C23.4015 2.56437 23.4106 2.56897 23.4196 2.57379C23.4286 2.57861 23.4375 2.58366 23.4464 2.58892C23.4551 2.59418 23.4638 2.59964 23.4722 2.60531C23.4807 2.61101 23.4891 2.6169 23.4974 2.62299C23.5055 2.62909 23.5136 2.63539 23.5215 2.64188C23.5294 2.64836 23.5371 2.65504 23.5448 2.6619C23.5522 2.66878 23.5597 2.67583 23.5669 2.68305C23.5741 2.69029 23.5812 2.69769 23.5881 2.70526C23.595 2.71285 23.6016 2.7206 23.6081 2.72851C23.6146 2.73641 23.6209 2.74446 23.627 2.75269C23.6331 2.7609 23.639 2.76926 23.6446 2.77778C23.6504 2.78627 23.6559 2.79491 23.6611 2.80367C23.6664 2.81245 23.6714 2.82135 23.6763 2.83039C23.681 2.8394 23.6856 2.84854 23.69 2.85779C23.6944 2.86702 23.6985 2.87637 23.7024 2.88584C23.7064 2.89528 23.71 2.90481 23.7135 2.91442C23.7169 2.92407 23.7201 2.93379 23.7231 2.94357C23.726 2.95336 23.7288 2.96321 23.7313 2.97315C23.7337 2.98305 23.736 2.99304 23.738 3.00309C23.74 3.01311 23.7418 3.02319 23.7432 3.0333C23.7442 3.04058 23.7453 3.04789 23.7461 3.05521L12.75 10.0555L2.5 3.5301L2.5 3.125C2.5 3.11477 2.50025 3.10455 2.50076 3.09433C2.50125 3.08411 2.502 3.07391 2.50303 3.06375C2.50402 3.05356 2.50528 3.0434 2.50677 3.0333C2.50826 3.02319 2.51001 3.01311 2.51203 3.00309C2.51401 2.99304 2.51626 2.98305 2.51874 2.97315C2.52122 2.96321 2.52395 2.95336 2.52691 2.94357C2.52989 2.93379 2.53309 2.92407 2.53653 2.91442C2.53999 2.90481 2.54367 2.89528 2.54757 2.88584C2.55149 2.87637 2.55562 2.86702 2.56 2.85779C2.56437 2.84854 2.56897 2.8394 2.57379 2.83039C2.57861 2.82135 2.58366 2.81245 2.58892 2.80367C2.59418 2.79491 2.59964 2.78627 2.60531 2.77778C2.61101 2.76926 2.6169 2.7609 2.62299 2.75269C2.62909 2.74446 2.63539 2.73641 2.64188 2.72851C2.64836 2.7206 2.65504 2.71285 2.6619 2.70526C2.66878 2.69769 2.67583 2.69029 2.68305 2.68305C2.69029 2.67583 2.69769 2.66878 2.70526 2.6619C2.71285 2.65504 2.7206 2.64836 2.72851 2.64188C2.73641 2.63539 2.74446 2.62909 2.75269 2.62299C2.7609 2.6169 2.76926 2.61101 2.77778 2.60531C2.78627 2.59964 2.79491 2.59418 2.80367 2.58892C2.81245 2.58366 2.82135 2.57861 2.83039 2.57379C2.8394 2.56897 2.84854 2.56437 2.85779 2.56C2.86702 2.55562 2.87637 2.55149 2.88584 2.54757C2.89528 2.54367 2.90481 2.53999 2.91446 2.53653C2.92409 2.53309 2.93379 2.52989 2.94357 2.52691C2.95336 2.52395 2.96321 2.52121 2.97315 2.51874C2.98305 2.51626 2.99304 2.51401 3.00309 2.51203C3.01311 2.51001 3.02319 2.50826 3.0333 2.50677C3.0434 2.50528 3.05356 2.50402 3.06375 2.50303C3.07391 2.502 3.08411 2.50125 3.09433 2.50076ZM2.5 6.4941L2.5 16.875C2.5 16.8853 2.50025 16.8955 2.50076 16.9056C2.50125 16.9159 2.502 16.9261 2.50303 16.9363C2.50402 16.9465 2.50528 16.9566 2.50677 16.9667C2.50826 16.9767 2.51001 16.9869 2.51203 16.9969C2.51401 17.007 2.51626 17.0169 2.51874 17.0269C2.52122 17.0368 2.52395 17.0466 2.52691 17.0564C2.52989 17.0662 2.53309 17.0759 2.53653 17.0855C2.53999 17.0951 2.54367 17.1047 2.54757 17.1141C2.55149 17.1236 2.55562 17.133 2.56 17.1423C2.56437 17.1515 2.56897 17.1606 2.57379 17.1696C2.57861 17.1786 2.58366 17.1875 2.58892 17.1964C2.59418 17.2051 2.59964 17.2138 2.60531 17.2222C2.61101 17.2307 2.6169 17.2391 2.62299 17.2474C2.62909 17.2555 2.63539 17.2636 2.64188 17.2715C2.64836 17.2794 2.65504 17.2871 2.6619 17.2948C2.66878 17.3022 2.67583 17.3097 2.68305 17.3169C2.69029 17.3241 2.69769 17.3312 2.70526 17.3381C2.71285 17.345 2.7206 17.3516 2.72851 17.3581C2.73641 17.3646 2.74446 17.3709 2.75269 17.377C2.7609 17.3831 2.76926 17.389 2.77778 17.3946C2.78627 17.4004 2.79491 17.4059 2.80367 17.4111C2.81245 17.4164 2.82135 17.4214 2.83039 17.4263C2.8394 17.431 2.84854 17.4356 2.85779 17.44C2.86702 17.4444 2.87637 17.4485 2.88584 17.4524C2.89528 17.4564 2.90481 17.46 2.91442 17.4635C2.92407 17.4669 2.93379 17.4701 2.94357 17.4731C2.95336 17.476 2.96321 17.4788 2.97315 17.4813C2.98305 17.4837 2.99304 17.486 3.00309 17.488C3.01311 17.49 3.02319 17.4918 3.0333 17.4932C3.0434 17.4947 3.05356 17.496 3.06375 17.497C3.07391 17.498 3.08411 17.4988 3.09433 17.4993C3.10455 17.4998 3.11477 17.5 3.125 17.5L23.125 17.5C23.1353 17.5 23.1455 17.4998 23.1556 17.4993C23.1659 17.4988 23.1761 17.498 23.1863 17.497C23.1965 17.496 23.2066 17.4947 23.2167 17.4932C23.2267 17.4918 23.2369 17.49 23.2469 17.488C23.257 17.486 23.267 17.4837 23.2769 17.4813C23.2868 17.4788 23.2966 17.476 23.3064 17.4731C23.3162 17.4701 23.3259 17.4669 23.3355 17.4635C23.3451 17.46 23.3547 17.4564 23.3641 17.4524C23.3736 17.4485 23.383 17.4444 23.3923 17.44C23.4015 17.4356 23.4106 17.431 23.4196 17.4263C23.4286 17.4214 23.4375 17.4164 23.4464 17.4111C23.4551 17.4059 23.4638 17.4004 23.4722 17.3946C23.4807 17.389 23.4891 17.3831 23.4974 17.377C23.5055 17.3709 23.5136 17.3646 23.5215 17.3581C23.5294 17.3516 23.5371 17.345 23.5448 17.3381C23.5522 17.3312 23.5597 17.3241 23.5669 17.3169C23.5741 17.3097 23.5812 17.3022 23.5881 17.2948C23.595 17.2871 23.6016 17.2794 23.6081 17.2715C23.6146 17.2636 23.6209 17.2555 23.627 17.2474C23.6331 17.2391 23.639 17.2307 23.6446 17.2222C23.6504 17.2138 23.6559 17.2051 23.6611 17.1964C23.6664 17.1875 23.6714 17.1786 23.6763 17.1696C23.681 17.1606 23.6856 17.1515 23.69 17.1423C23.6944 17.133 23.6985 17.1236 23.7024 17.1141C23.7064 17.1047 23.71 17.0951 23.7135 17.0856C23.7169 17.0759 23.7201 17.0662 23.7231 17.0564C23.726 17.0466 23.7288 17.0368 23.7313 17.0269C23.7337 17.0169 23.736 17.007 23.738 16.9969C23.74 16.9869 23.7418 16.9767 23.7432 16.9667C23.7447 16.9566 23.746 16.9465 23.747 16.9363C23.748 16.9261 23.7488 16.9159 23.7493 16.9056C23.7498 16.8955 23.75 16.8853 23.75 16.875L23.75 6.01673L13.7572 12.3781C13.7385 12.39 13.7196 12.4016 13.7006 12.4128C13.6815 12.4241 13.6621 12.4349 13.6427 12.4455C13.6233 12.456 13.6036 12.4662 13.5837 12.4761C13.5639 12.4859 13.5439 12.4954 13.5236 12.5046C13.5035 12.5138 13.4831 12.5225 13.4626 12.5309C13.4421 12.5394 13.4215 12.5474 13.4008 12.5551C13.38 12.5627 13.3591 12.5701 13.3381 12.577C13.317 12.584 13.2959 12.5905 13.2746 12.5968C13.2534 12.603 13.232 12.6088 13.2105 12.6143C13.189 12.6196 13.1675 12.6248 13.1458 12.6294C13.1241 12.634 13.1024 12.6384 13.0806 12.6423C13.0588 12.6461 13.0369 12.6496 13.015 12.6528C12.993 12.656 12.9711 12.6586 12.9491 12.661C12.927 12.6634 12.905 12.6654 12.8829 12.6669C12.8608 12.6685 12.8386 12.6696 12.8165 12.6705C12.7944 12.6713 12.7723 12.6716 12.75 12.6716C12.7279 12.6716 12.7058 12.6713 12.6836 12.6705C12.6615 12.6696 12.6394 12.6685 12.6173 12.6669C12.5951 12.6654 12.5731 12.6634 12.5511 12.661C12.529 12.6586 12.507 12.656 12.4851 12.6528C12.4632 12.6496 12.4413 12.6461 12.4195 12.6423C12.3977 12.6384 12.376 12.634 12.3543 12.6294C12.3327 12.6248 12.3111 12.6196 12.2896 12.6143C12.2682 12.6088 12.2468 12.603 12.2255 12.5968C12.2043 12.5905 12.1831 12.584 12.1621 12.577C12.141 12.5701 12.1201 12.5627 12.0994 12.5551C12.0786 12.5474 12.0579 12.5394 12.0374 12.5309C12.0169 12.5225 11.9966 12.5138 11.9764 12.5046C11.9562 12.4954 11.9362 12.4859 11.9164 12.4761C11.8966 12.4662 11.8769 12.456 11.8574 12.4455C11.8379 12.4349 11.8186 12.4241 11.7996 12.4128C11.7805 12.4016 11.7616 12.39 11.7429 12.3781L2.5 6.4941Z" fill-rule="evenodd"  fill="#000000" >
</path>
</svg>
