<svg xmlns="http://www.w3.org/2000/svg" width="14.289" height="9.98" viewBox="0 0 14.289 9.98" fill="none"><path d="M7.332 9.976a5.473 5.473 0 0 1-.188.004C3.251 9.98.215 5.47.09 5.28a.52.52 0 0 1-.066-.14L.018 5.12a1.125 1.125 0 0 1-.009-.038l-.003-.019a.409.409 0 0 1-.005-.096v-.02l.003-.018.002-.02.003-.019a.418.418 0 0 1 .009-.037l.005-.019a.407.407 0 0 1 .036-.09.392.392 0 0 1 .03-.05 13.433 13.433 0 0 1 1.065-1.35c.768-.864 1.572-1.58 2.39-2.126C6.03-.445 8.426-.404 10.91 1.332a.498.498 0 0 1 .13.128.614.614 0 0 1 .061.115.541.541 0 0 1 .028.282.553.553 0 0 1-.076.194.485.485 0 0 1-.103.118.513.513 0 0 1-.207.11.505.505 0 0 1-.208.014.545.545 0 0 1-.243-.093C8.17.716 6.263.681 4.143 2.1c-.742.495-1.477 1.15-2.185 1.947-.269.302-.524.615-.765.939.713.956 3.155 3.931 5.951 3.931a4.359 4.359 0 0 0 1.188-.171c.111-.031.222-.067.333-.106.781-.28 1.585-.77 2.389-1.455a13.817 13.817 0 0 0 2.042-2.198 13.351 13.351 0 0 0-.64-.797.474.474 0 0 1-.076-.136.536.536 0 0 1 .05-.475.501.501 0 0 1 .144-.15.495.495 0 0 1 .141-.07.6.6 0 0 1 .155-.025.55.55 0 0 1 .363.13.54.54 0 0 1 .055.056 12.934 12.934 0 0 1 .933 1.209.861.861 0 0 1 .033.07.413.413 0 0 1 .026.092l.003.02a.619.619 0 0 1 .006.057v.02a.62.62 0 0 1-.017.133.597.597 0 0 1-.06.142 14.447 14.447 0 0 1-2.459 2.727c-.904.77-1.82 1.324-2.723 1.648a6.043 6.043 0 0 1-1.137.287 5.46 5.46 0 0 1-.56.051zm2.49-4.986c0 1.464-1.201 2.656-2.679 2.656-1.477 0-2.679-1.192-2.679-2.656 0-1.464 1.202-2.656 2.68-2.656 1.477 0 2.678 1.192 2.678 2.656zm-1.071 0c0-.878-.721-1.594-1.608-1.594-.886 0-1.607.716-1.607 1.594 0 .879.72 1.594 1.607 1.594s1.608-.715 1.608-1.594z" fill-rule="evenodd" fill="#000"/></svg>